<?xml version="1.0" standalone="no"?>
<!DOCTYPE svg PUBLIC "-//W3C//DTD SVG 20010904//EN"
 "http://www.w3.org/TR/2001/REC-SVG-20010904/DTD/svg10.dtd">
<svg version="1.0" xmlns="http://www.w3.org/2000/svg"
 width="736.000000pt" height="883.000000pt" viewBox="0 0 736.000000 883.000000"
 preserveAspectRatio="xMidYMid meet">

<g transform="translate(0.000000,883.000000) scale(0.100000,-0.100000)"
fill="#000000" stroke="none">
<path d="M3555 8449 c-222 -29 -422 -128 -583 -292 -396 -399 -385 -1027 25
-1424 l74 -71 -63 -119 c-35 -65 -79 -147 -97 -183 -27 -53 -44 -72 -84 -95
-63 -38 -97 -87 -97 -141 0 -58 25 -134 61 -183 63 -88 20 -44 -86 87 -327
404 -439 518 -805 822 -241 200 -490 337 -662 365 -35 5 -37 8 -43 53 -4 26
-16 65 -27 87 -11 22 -29 76 -40 120 -10 44 -23 84 -28 89 -6 6 -20 2 -37 -11
-22 -16 -27 -28 -25 -53 2 -28 0 -31 -13 -20 -13 10 -15 9 -15 -10 0 -20 -2
-21 -17 -9 -15 13 -16 12 -11 -8 7 -26 -1 -29 -21 -10 -11 10 -12 8 -6 -10 4
-14 2 -23 -4 -23 -6 0 -11 5 -11 10 0 6 -4 10 -9 10 -5 0 -7 -10 -4 -22 5 -19
3 -21 -8 -10 -20 18 -28 15 -21 -10 5 -21 4 -22 -11 -9 -15 12 -17 11 -17 -9
0 -20 -2 -21 -17 -9 -15 13 -16 11 -9 -16 l7 -29 -21 19 -21 19 7 -29 7 -30
-22 20 -22 19 7 -29 c7 -27 6 -29 -9 -16 -15 12 -17 11 -18 -10 0 -13 -3 -18
-6 -11 -8 21 -26 13 -20 -9 4 -17 3 -19 -6 -10 -18 18 -29 13 -22 -11 6 -19 5
-21 -6 -10 -20 18 -28 15 -22 -10 5 -19 3 -21 -8 -10 -20 18 -28 15 -21 -10 5
-21 4 -22 -13 -8 -17 14 -18 13 -13 -7 7 -26 -1 -29 -21 -10 -11 10 -12 8 -6
-10 7 -25 -4 -30 -24 -10 -11 10 -12 7 -6 -13 6 -20 5 -23 -6 -12 -20 18 -28
15 -22 -10 5 -19 3 -21 -8 -10 -20 18 -28 15 -21 -10 5 -21 4 -22 -13 -8 -17
14 -18 13 -13 -7 7 -26 -1 -29 -21 -10 -11 10 -12 7 -7 -18 l7 -29 -21 19 -21
19 7 -29 c7 -30 7 -30 -14 -12 -20 18 -20 18 -15 -2 6 -24 1 -26 -26 -10 -14
10 -24 7 -49 -11 -38 -28 -38 -34 -11 -97 12 -26 56 -142 99 -258 90 -245 126
-320 182 -381 43 -47 62 -53 88 -29 14 13 14 25 -7 147 -32 187 -27 198 12 27
18 -80 41 -161 50 -180 10 -19 52 -69 93 -111 l75 -77 53 -231 c30 -127 58
-240 64 -250 13 -24 72 -70 91 -70 20 0 69 61 69 86 0 12 -13 73 -29 135 -17
62 -29 114 -28 116 2 1 52 -44 112 -99 346 -319 470 -417 690 -544 83 -48 186
-112 230 -142 79 -53 296 -224 291 -229 -1 -1 -60 9 -132 22 -668 129 -1757
315 -1846 315 -33 0 -42 -6 -69 -42 -42 -58 -65 -113 -84 -202 -16 -78 -19
-221 -7 -291 7 -37 10 -40 62 -56 178 -54 1296 -267 1858 -354 171 -27 179
-27 244 0 16 6 15 3 -2 -32 -10 -21 -21 -55 -25 -76 -9 -45 24 -43 -355 -17
-308 21 -428 24 -395 10 16 -7 14 -9 -15 -9 -23 -1 -30 -4 -22 -10 17 -10 -6
-21 -46 -21 -19 0 -23 -3 -14 -9 18 -11 -6 -21 -51 -22 l-32 -1 35 -13 35 -13
-50 -1 c-36 -1 -46 -4 -35 -11 11 -7 6 -10 -20 -11 -19 0 -29 -3 -22 -6 21 -8
2 -23 -31 -24 -18 0 -26 -3 -19 -6 21 -8 3 -23 -29 -23 -27 0 -43 -19 -16 -21
6 0 -5 -9 -26 -18 -20 -10 -34 -21 -30 -24 3 -4 -1 -7 -10 -7 -11 0 -14 -5
-10 -16 11 -30 -60 10 -178 100 -186 141 -319 196 -477 196 -326 0 -542 -172
-542 -430 0 -127 47 -228 147 -320 87 -79 272 -160 368 -160 24 0 35 -6 43
-25 31 -67 172 -33 172 41 0 16 10 28 31 39 17 9 85 67 150 129 102 96 124
112 145 108 l26 -5 -32 -20 c-29 -18 -31 -22 -14 -28 18 -7 18 -7 1 -14 -15
-6 -16 -10 -5 -16 10 -7 10 -9 1 -9 -7 0 -13 -4 -13 -9 0 -5 21 -7 48 -5 l47
4 -35 -15 c-79 -35 -78 -34 -30 -35 l45 -1 -30 -17 -30 -17 28 -3 28 -3 -23
-19 -23 -19 25 -1 c24 -1 24 -1 5 -12 -30 -16 -30 -17 -9 -34 10 -8 14 -13 8
-10 -6 3 -11 -1 -11 -9 0 -11 5 -12 21 -3 19 10 20 10 6 -6 -20 -26 -21 -46
-2 -39 14 5 15 3 5 -8 -21 -21 -15 -29 13 -19 39 15 42 12 9 -15 -21 -18 -24
-23 -10 -18 18 6 18 4 -4 -20 -27 -30 -23 -32 32 -16 50 14 58 5 15 -17 l-33
-18 30 -7 c17 -4 24 -7 18 -8 -7 0 -13 -5 -13 -11 0 -6 9 -6 26 0 39 15 42 12
9 -15 l-30 -25 45 6 45 6 -42 -32 c-49 -37 -53 -44 -18 -38 29 6 31 1 8 -24
-19 -21 -4 -24 30 -7 21 12 21 12 3 -16 l-19 -29 37 22 c43 25 45 20 10 -26
-23 -30 -24 -33 -6 -23 28 15 35 14 28 -4 -6 -18 -1 -19 25 -5 22 12 24 7 9
-21 -12 -22 0 -25 31 -8 18 9 19 8 13 -18 -7 -28 -7 -28 15 -9 22 20 30 9 9
-12 -15 -15 -3 -15 24 -1 18 10 20 9 15 -5 -9 -23 10 -20 23 4 6 11 15 20 21
20 5 0 2 -11 -8 -24 -15 -20 -29 -24 -98 -30 -163 -13 -266 -58 -371 -161 -90
-89 -133 -173 -141 -279 -6 -72 0 -108 37 -246 24 -89 19 -112 -45 -199 -85
-115 -119 -207 -135 -356 -11 -108 -1 -161 35 -192 33 -29 60 -29 89 0 19 20
24 37 29 122 8 118 39 237 73 282 52 69 129 96 325 113 63 5 140 17 170 26
143 42 263 142 323 267 51 108 60 165 52 362 -7 168 -7 170 15 183 20 13 21
12 15 -3 -5 -15 -4 -16 8 -6 8 7 21 9 27 5 7 -4 9 -3 5 4 -3 6 -1 14 5 18 8 4
9 3 5 -4 -4 -7 -2 -12 4 -12 6 0 8 -5 4 -12 -4 -7 -3 -8 5 -4 6 4 8 12 5 18
-5 7 -2 8 5 4 7 -5 21 0 33 11 21 18 21 18 8 -7 -11 -22 -8 -20 24 9 39 38 46
36 19 -7 l-17 -27 31 28 c16 15 43 30 59 33 l28 5 -19 -23 c-11 -13 2 -3 29
22 l48 45 -16 -35 c-15 -31 -11 -29 39 24 30 33 55 55 55 50 0 -6 -3 -14 -7
-20 -7 -8 167 170 397 409 l86 89 54 -33 c30 -18 57 -35 59 -36 5 -4 -35 -62
-153 -218 -215 -287 -480 -596 -945 -1105 -136 -149 -187 -218 -234 -318 -30
-62 -32 -75 -32 -172 0 -116 12 -152 77 -225 135 -154 385 -89 671 174 85 79
352 373 493 545 68 82 120 138 122 130 2 -8 -8 -24 -22 -35 -44 -35 -56 -70
-56 -166 l-1 -88 -40 -28 c-63 -44 -84 -113 -53 -172 11 -20 16 -52 15 -101
-2 -84 9 -117 54 -164 l34 -35 3 -225 3 -226 33 -66 c38 -78 88 -125 184 -174
168 -85 472 -126 774 -104 312 22 491 83 602 205 76 83 82 110 82 363 l0 215
41 35 c54 46 69 85 69 175 0 48 6 85 16 106 30 60 3 135 -62 173 l-34 20 0 89
c0 101 -11 133 -61 172 -18 14 -30 31 -28 41 3 10 48 -37 132 -139 156 -189
409 -467 503 -554 278 -256 528 -319 662 -166 65 73 77 109 77 225 0 97 -2
110 -32 172 -50 105 -99 170 -284 374 -467 512 -681 763 -895 1049 -149 199
-167 225 -152 225 8 0 36 14 63 31 l49 31 86 -88 c231 -240 404 -418 398 -410
-5 6 -8 14 -8 20 0 5 25 -17 55 -50 50 -53 54 -55 39 -24 l-16 35 48 -45 c27
-25 40 -35 29 -22 l-19 23 28 -5 c16 -3 43 -18 59 -33 l31 -28 -17 27 c-27 43
-20 45 19 7 32 -29 35 -31 24 -9 -13 25 -13 25 8 7 12 -11 26 -16 33 -11 7 4
10 3 5 -4 -3 -6 -1 -14 5 -18 8 -4 9 -3 5 4 -4 7 -2 12 4 12 6 0 8 5 4 12 -4
7 -3 8 5 4 6 -4 8 -12 5 -18 -4 -7 -2 -8 5 -4 6 4 19 2 27 -5 12 -10 13 -9 8
6 -6 15 -5 16 15 3 22 -13 22 -15 15 -183 -8 -197 1 -254 52 -362 60 -125 180
-225 323 -267 30 -9 107 -21 170 -26 196 -17 273 -44 325 -113 34 -45 65 -164
73 -282 5 -85 10 -102 29 -122 29 -29 56 -29 89 0 35 30 46 89 34 197 -15 144
-50 237 -134 351 -64 87 -69 110 -45 199 37 138 43 174 37 246 -8 106 -51 190
-141 279 -105 103 -208 148 -371 161 -69 6 -83 10 -98 30 -10 13 -13 24 -8 24
6 0 15 -9 21 -20 13 -24 32 -27 23 -4 -5 14 -3 15 15 5 27 -14 39 -14 24 1
-21 21 -13 32 9 12 22 -19 22 -19 15 9 -6 26 -5 27 13 18 31 -17 43 -14 31 8
-15 28 -13 33 9 21 26 -14 31 -13 25 5 -7 18 0 19 28 4 18 -10 17 -7 -6 23
-32 43 -33 54 -4 34 31 -22 41 -20 28 5 -10 19 -10 20 9 10 32 -17 46 -14 28
7 -23 25 -21 30 8 24 35 -6 31 1 -17 38 l-43 32 45 -6 45 -6 -30 25 c-33 27
-30 30 9 15 17 -6 26 -6 26 0 0 6 -6 11 -12 11 -7 1 1 4 17 8 l30 7 -33 18
c-43 22 -35 31 15 17 55 -16 59 -14 32 16 -22 24 -22 26 -4 20 14 -5 11 0 -10
18 -33 27 -30 30 9 15 28 -10 34 -2 14 19 -11 11 -10 13 4 8 19 -7 18 13 -2
39 -14 16 -13 16 6 6 16 -9 21 -8 21 3 0 8 -5 12 -11 9 -6 -3 -2 2 8 10 21 17
21 18 -9 34 -19 11 -19 11 5 12 l25 1 -23 19 -23 19 28 3 28 3 -30 17 -30 17
45 1 45 2 -35 14 c-74 31 -78 35 -27 30 26 -2 47 0 47 5 0 5 -6 9 -12 9 -10 0
-10 2 0 9 11 6 10 10 -5 16 -17 7 -17 7 1 14 17 6 15 10 -14 28 l-32 20 26 5
c21 4 43 -12 145 -108 65 -62 133 -120 150 -129 21 -11 31 -23 31 -39 0 -74
141 -108 172 -41 8 19 19 25 43 25 96 0 281 81 368 160 100 92 147 193 147
320 0 258 -216 430 -542 430 -158 0 -291 -55 -477 -196 -118 -90 -189 -130
-178 -100 4 11 1 16 -10 16 -9 0 -13 3 -10 7 4 3 -10 14 -30 24 -21 9 -32 18
-25 18 26 2 10 21 -17 21 -32 0 -50 15 -29 23 7 3 -1 6 -19 6 -33 1 -52 16
-31 24 7 3 -3 6 -22 6 -26 1 -31 4 -20 11 11 7 1 10 -35 11 l-50 1 35 13 35
13 -32 1 c-45 1 -69 11 -51 22 9 6 5 9 -14 9 -40 0 -63 11 -46 21 8 6 1 9 -22
10 -29 0 -31 2 -15 9 33 14 -87 11 -395 -10 -379 -26 -346 -28 -355 17 -4 21
-15 55 -25 76 -17 35 -18 38 -2 32 65 -27 73 -27 244 0 562 87 1680 300 1858
354 52 16 55 19 62 56 12 70 9 213 -7 291 -19 89 -42 144 -84 202 -27 36 -36
42 -69 42 -89 0 -1178 -186 -1846 -315 -72 -13 -131 -23 -132 -22 -5 5 212
176 291 229 44 30 148 94 230 142 220 127 344 225 690 544 60 55 110 100 112
99 1 -2 -11 -54 -28 -116 -16 -62 -29 -123 -29 -135 0 -25 50 -86 71 -86 8 0
31 14 51 31 43 34 41 29 108 317 l47 203 75 77 c41 42 83 92 92 110 10 19 30
88 46 155 32 136 39 115 11 -36 -16 -90 -16 -98 -1 -112 26 -24 45 -18 88 29
56 61 92 136 182 381 43 116 87 232 99 258 27 63 27 69 -11 97 -25 18 -35 21
-49 11 -27 -16 -32 -14 -26 10 5 20 5 20 -15 2 -21 -18 -21 -18 -14 12 l7 29
-21 -19 -21 -19 7 29 c5 25 4 28 -7 18 -20 -19 -28 -16 -21 10 5 20 4 21 -13
7 -17 -14 -18 -13 -13 8 7 25 -1 28 -21 10 -11 -11 -13 -9 -8 10 6 25 -2 28
-22 10 -11 -11 -12 -8 -6 12 6 20 5 23 -6 13 -20 -20 -31 -15 -24 10 6 18 5
20 -6 10 -20 -19 -28 -16 -21 10 5 20 4 21 -13 7 -17 -14 -18 -13 -13 8 7 25
-1 28 -21 10 -11 -11 -13 -9 -8 10 6 25 -2 28 -22 10 -11 -11 -12 -9 -6 10 7
24 -4 29 -22 11 -9 -9 -10 -7 -6 10 6 22 -12 30 -20 9 -3 -7 -6 -2 -6 11 -1
21 -3 22 -18 10 -15 -13 -16 -11 -9 16 l7 29 -22 -19 -22 -20 7 30 7 29 -21
-19 -21 -19 7 29 c7 27 6 29 -9 16 -15 -12 -17 -11 -17 9 0 20 -2 21 -17 9
-15 -13 -16 -12 -11 9 7 25 -1 28 -21 10 -11 -11 -13 -9 -8 10 3 12 1 22 -4
22 -5 0 -9 -4 -9 -10 0 -5 -5 -10 -11 -10 -6 0 -8 9 -4 23 6 18 5 20 -6 10
-20 -19 -28 -16 -21 10 5 20 4 21 -11 8 -15 -12 -17 -11 -17 9 0 19 -2 20 -15
10 -13 -11 -15 -8 -13 20 2 25 -3 37 -25 53 -17 13 -31 17 -37 11 -5 -5 -18
-45 -28 -89 -11 -44 -29 -98 -40 -120 -11 -22 -23 -61 -27 -87 -6 -45 -8 -48
-43 -53 -172 -28 -421 -165 -662 -365 -344 -285 -500 -442 -750 -755 -132
-166 -170 -208 -170 -191 0 7 7 19 16 27 45 37 86 172 70 232 -7 30 -61 86
-107 111 -28 15 -50 48 -131 202 l-97 184 83 84 c98 98 153 176 211 300 67
142 89 244 89 411 0 111 -4 158 -22 228 -48 192 -141 355 -279 488 -170 164
-350 250 -583 279 -96 11 -136 11 -235 -1z m234 -115 c183 -41 332 -172 392
-345 32 -94 31 -227 -4 -334 -48 -148 -179 -309 -321 -394 -403 -242 -900 -96
-991 290 -62 264 100 561 385 708 182 94 349 117 539 75z m425 -97 c78 -53
192 -167 243 -242 115 -172 167 -340 166 -545 -1 -255 -99 -484 -286 -669
l-75 -73 -38 26 c-164 112 -709 136 -989 44 -33 -10 -78 -31 -99 -45 l-39 -25
-91 94 c-168 174 -255 370 -270 613 l-6 90 19 -121 c38 -237 150 -442 316
-578 54 -43 58 -45 83 -32 104 54 302 86 531 86 185 0 333 -18 453 -56 l79
-25 65 56 c68 61 83 85 34 60 -60 -31 -129 -13 -155 40 -35 76 -10 202 63 306
115 164 289 161 293 -6 l1 -40 19 59 c80 247 26 552 -136 781 -52 74 -177 193
-239 230 -25 15 -46 29 -46 31 0 7 40 -15 104 -59z m286 -637 c11 -11 20 -28
20 -38 0 -25 -36 -62 -60 -62 -26 0 -60 34 -60 60 0 26 34 60 60 60 11 0 29
-9 40 -20z m-3430 -108 c0 -9 17 -52 39 -95 40 -81 55 -121 41 -112 -5 3 -14
-4 -20 -15 -6 -11 -15 -18 -20 -15 -5 3 -16 -5 -24 -17 -9 -12 -16 -19 -16
-15 0 10 -275 -198 -345 -261 -27 -24 -58 -56 -67 -71 -10 -15 -27 -26 -40
-26 -12 0 -23 -7 -25 -15 -4 -13 -3 -13 7 0 10 13 11 13 7 0 -2 -8 -13 -14
-25 -14 -12 1 -19 -3 -16 -7 5 -8 -10 -13 -29 -10 -5 1 -6 -3 -2 -8 8 -15 85
-295 81 -299 -2 -1 -23 57 -46 130 -50 159 -70 199 -110 228 -34 24 -105 108
-98 116 3 2 33 -23 67 -56 68 -67 99 -80 52 -23 -42 51 -39 59 6 18 41 -37 59
-39 26 -2 -32 35 -39 55 -12 32 56 -48 65 -52 38 -15 -44 60 -44 66 -1 28 52
-47 60 -48 29 -5 -42 56 -41 63 2 22 46 -44 54 -40 16 9 -38 49 -30 55 15 11
46 -45 51 -43 15 5 -25 34 -35 66 -13 39 7 -8 26 -25 42 -39 l29 -25 -33 50
-33 50 34 -32 c43 -40 57 -43 31 -5 -35 51 -35 57 1 23 40 -38 48 -35 19 7
-37 54 -34 56 13 12 38 -36 44 -39 28 -15 -11 17 -26 41 -32 55 -12 25 -12 25
6 5 10 -11 29 -29 42 -40 23 -19 23 -19 -3 22 -33 54 -34 68 0 26 14 -18 30
-33 35 -33 5 0 0 15 -11 33 -30 48 -24 51 16 9 l36 -37 -21 38 c-29 53 -26 56
15 16 l35 -34 -27 50 -27 50 38 -35 38 -35 -21 36 c-32 53 -27 58 13 13 l36
-39 -21 42 c-27 57 -26 59 16 15 l36 -37 -26 46 c-35 61 -33 66 10 21 l35 -37
-21 45 -21 45 31 -35 c33 -38 38 -34 14 11 -21 42 -11 47 16 9 31 -43 36 -31
10 22 l-22 43 36 -40 37 -40 -21 42 c-27 56 -25 59 11 21 l30 -33 -16 33 c-22
45 -13 51 15 12 30 -42 36 -31 11 19 -29 57 -26 61 9 13 17 -23 32 -42 35 -42
2 0 -7 24 -19 53 -30 65 -40 107 -26 107 5 0 10 -8 10 -18z m5234 -9 c-3 -16
-17 -52 -30 -80 -12 -29 -21 -53 -19 -53 3 0 18 19 35 42 35 48 38 44 9 -13
-25 -50 -19 -61 11 -19 27 38 37 33 16 -9 -24 -46 -19 -48 14 -6 35 44 38 40
10 -18 l-21 -42 37 40 36 40 -22 -43 c-26 -53 -21 -65 10 -22 27 38 37 33 16
-9 -24 -45 -19 -49 14 -11 l31 35 -22 -45 -21 -45 31 29 c36 35 39 28 10 -23
l-21 -36 36 37 c42 44 43 42 16 -15 l-21 -42 36 39 c40 45 45 40 13 -13 l-21
-36 38 35 38 35 -27 -50 -27 -50 42 40 42 40 -28 -50 -27 -50 36 37 c40 42 46
39 16 -9 -11 -18 -16 -33 -11 -33 5 0 21 15 35 33 33 42 33 28 0 -26 l-26 -42
42 40 c44 42 43 29 -3 -40 -16 -24 -10 -21 28 15 47 44 50 42 13 -12 -29 -42
-21 -45 19 -7 36 34 36 28 1 -23 -26 -38 -12 -35 31 5 l34 32 -33 -50 -33 -50
29 25 c16 14 35 31 42 39 22 27 12 -5 -13 -39 -36 -48 -31 -50 15 -5 45 44 53
38 15 -11 -38 -49 -30 -53 16 -9 43 41 44 34 2 -22 -31 -43 -23 -42 29 5 l42
37 -34 -50 c-33 -49 -28 -49 29 0 27 23 20 3 -12 -32 -33 -37 -15 -35 26 2 45
41 48 33 6 -18 -47 -57 -16 -44 52 23 34 33 64 58 67 56 7 -8 -64 -92 -98
-116 -40 -29 -60 -69 -110 -228 -23 -73 -44 -131 -46 -130 -4 4 73 284 81 299
4 5 3 9 -2 8 -19 -3 -34 2 -29 10 3 4 -4 8 -16 7 -12 0 -23 6 -25 14 -4 13 -3
13 7 0 10 -13 11 -13 7 0 -2 8 -13 15 -25 15 -13 0 -30 11 -40 26 -9 15 -39
47 -67 71 -86 77 -343 267 -351 260 -4 -4 -4 1 -1 11 4 10 3 16 -2 12 -5 -3
-12 -1 -16 5 -4 6 -10 8 -15 5 -5 -3 -14 4 -20 15 -6 11 -15 18 -20 15 -14 -9
1 31 41 112 22 43 39 86 39 95 0 10 5 18 10 18 6 0 8 -11 4 -27z m-4979 -330
c140 -45 339 -160 495 -287 321 -261 529 -461 695 -665 55 -68 146 -180 203
-248 l102 -124 0 -90 c0 -98 12 -133 55 -167 l25 -20 0 -317 0 -317 -81 73
c-324 295 -440 387 -660 524 -243 152 -332 223 -674 535 -110 101 -308 281
-440 400 -244 220 -304 280 -325 322 -8 15 3 8 35 -22 45 -42 46 -43 23 -10
-14 19 -34 49 -44 65 -16 28 -14 27 26 -10 44 -41 45 -35 3 21 -36 48 -27 52
18 9 44 -42 43 -34 0 24 -27 36 -15 34 29 -3 l24 -21 -17 25 c-40 59 -40 63
-1 34 l39 -29 -29 39 c-30 40 -27 40 29 3 l30 -20 -27 29 c-38 41 -35 47 10
22 l37 -22 -30 33 -30 33 45 -21 45 -22 -35 31 c-40 35 -35 38 23 9 l42 -20
-35 30 c-37 32 -32 40 10 16 40 -23 48 -17 15 10 l-30 26 39 -16 c48 -19 59
-12 16 10 -43 22 -31 30 15 10 47 -19 58 -12 15 10 -44 23 -32 28 20 10 57
-20 63 -18 17 6 -50 26 -43 32 16 14 56 -17 62 -10 11 11 -50 21 -37 27 19 10
26 -8 47 -12 47 -10 0 2 -17 12 -37 23 -46 24 -43 25 25 7 57 -16 63 -4 6 14
-49 16 -36 24 17 10 78 -20 85 -20 44 0 -51 25 -24 25 55 1 72 -23 69 -12 -5
19 l-50 21 40 -6 c22 -3 63 -13 90 -22z m4791 7 c-74 -29 -78 -42 -6 -19 79
24 106 24 55 -1 -41 -20 -34 -20 44 0 53 14 66 6 17 -10 -57 -18 -51 -30 6
-14 68 18 71 17 26 -7 -21 -11 -38 -21 -38 -23 0 -2 21 2 47 10 56 17 69 11
19 -10 -51 -21 -45 -28 11 -11 59 18 66 12 16 -14 -46 -24 -40 -26 17 -6 52
18 64 13 20 -10 -43 -22 -32 -29 15 -10 46 20 58 12 15 -10 -43 -22 -32 -29
16 -10 l39 16 -30 -26 c-33 -27 -25 -33 15 -10 42 24 47 16 10 -16 l-35 -30
42 20 c58 29 63 26 23 -9 l-35 -31 45 22 45 21 -30 -33 -30 -33 38 22 c44 25
47 19 10 -22 l-28 -29 30 20 c56 37 59 37 29 -3 l-29 -39 39 29 c39 29 39 23
-2 -34 -16 -23 -15 -23 23 5 l40 30 -26 -35 c-43 -59 -44 -67 0 -25 45 43 54
39 18 -9 -42 -56 -41 -62 3 -21 40 37 42 38 26 10 -10 -16 -30 -46 -44 -65
-23 -33 -22 -32 23 10 32 30 43 37 35 22 -21 -42 -81 -102 -325 -322 -132
-119 -330 -299 -440 -400 -342 -312 -431 -383 -673 -534 -223 -140 -312 -209
-608 -478 -78 -70 -143 -128 -145 -128 -2 0 -3 143 -1 317 l3 318 30 23 c48
38 59 71 59 171 l0 91 78 93 c42 51 133 162 202 247 191 236 385 423 721 697
167 136 385 258 529 297 78 21 104 19 46 -4z m-5656 -415 c82 -166 178 -400
168 -410 -2 -3 -24 44 -47 103 -57 141 -167 370 -218 454 -23 37 -38 69 -35
73 12 11 43 -41 132 -220z m6538 147 c-52 -84 -162 -313 -219 -454 -48 -120
-65 -139 -25 -29 84 233 252 571 276 556 5 -3 -10 -36 -32 -73z m-2970 -141
c52 -11 117 -33 145 -48 50 -27 54 -33 140 -197 48 -92 86 -170 84 -172 -2 -2
-48 7 -102 21 -185 47 -315 60 -620 59 -302 0 -416 -11 -609 -59 -55 -14 -101
-23 -103 -21 -2 1 36 78 84 171 96 186 101 191 217 227 126 38 217 47 451 44
178 -3 238 -8 313 -25z m2679 -233 c-3 -7 -5 -2 -5 12 0 14 2 19 5 13 2 -7 2
-19 0 -25z m-5896 -155 c13 -16 12 -17 -3 -4 -17 13 -22 21 -14 21 2 0 10 -8
17 -17z m5759 13 c0 -2 -8 -10 -17 -17 -16 -13 -17 -12 -4 4 13 16 21 21 21
13z m-5617 -30 c42 -39 57 -82 67 -184 9 -107 20 -162 80 -406 38 -157 47
-206 34 -194 -6 7 -64 227 -100 382 -14 60 -29 153 -34 206 -9 106 -31 164
-76 199 -17 13 -21 21 -12 21 8 0 27 -11 41 -24z m3077 4 c272 -35 470 -101
530 -177 24 -30 23 -83 -2 -138 l-13 -28 -7 34 c-4 19 -2 38 3 43 18 19 9 62
-20 90 l-28 27 -13 -30 c-11 -26 -14 -29 -35 -19 -19 9 -22 16 -18 43 5 30 2
33 -35 48 -37 15 -230 67 -248 67 -5 0 -3 -5 4 -12 18 -18 15 -48 -5 -48 -10
0 -45 5 -78 10 -132 22 -383 31 -552 20 -91 -6 -167 -9 -169 -8 -2 2 3 16 11
31 13 26 13 27 -10 27 -28 0 -55 -24 -55 -50 0 -14 -10 -21 -37 -25 -21 -4
-78 -16 -126 -27 -49 -11 -91 -17 -94 -14 -3 3 2 17 12 32 l17 27 -28 -7 c-50
-12 -74 -34 -74 -65 0 -17 -6 -31 -16 -35 -24 -9 -36 3 -30 30 8 31 4 30 -50
-6 -46 -32 -62 -66 -46 -97 5 -10 7 -36 3 -58 l-7 -40 -17 49 c-22 65 -21 98
3 129 72 92 310 159 680 191 80 7 462 -3 550 -14z m2406 -1 c-45 -36 -67 -93
-77 -200 -9 -113 -113 -566 -134 -587 -12 -12 -3 38 35 194 60 244 71 299 80
406 5 54 16 111 26 129 19 39 62 79 82 79 9 0 5 -8 -12 -21z m-2333 -148 c157
-28 297 -75 342 -115 l35 -31 2 -140 c1 -77 -2 -141 -5 -143 -4 -1 -28 9 -55
22 -315 160 -1168 160 -1483 1 -27 -14 -52 -25 -56 -25 -4 0 -7 64 -5 142 2
159 4 163 82 203 167 83 390 116 765 111 209 -3 283 -8 378 -25z m-2957 -153
c41 -39 74 -76 74 -81 0 -5 -36 23 -80 63 -72 64 -92 90 -74 90 3 0 39 -32 80
-72z m5079 -13 c-44 -40 -82 -71 -85 -68 -3 2 30 38 73 80 43 41 82 72 85 68
4 -4 -29 -40 -73 -80z m-4725 -210 c85 -76 179 -161 207 -189 l53 -50 -28 -18
c-35 -23 -65 -23 -87 2 -23 25 -29 25 -44 -2 -11 -23 -11 -23 -5 2 4 14 9 31
11 38 3 6 0 12 -5 12 -6 0 -14 -9 -17 -21 -4 -11 -9 -19 -11 -16 -3 2 0 16 5
31 13 32 -1 34 -23 4 -16 -23 -16 -23 -6 -1 5 12 10 29 10 38 0 14 -4 13 -21
-6 -19 -23 -20 -23 -10 -2 18 36 12 50 -10 23 -20 -24 -20 -18 -3 25 3 8 2 15
-4 15 -5 0 -13 -7 -16 -16 -4 -9 -9 -14 -12 -11 -3 3 -1 14 5 26 7 13 8 22 1
26 -5 3 -10 2 -10 -2 0 -5 -7 -18 -15 -29 -14 -18 -14 -17 -5 9 16 44 11 54
-10 27 l-20 -25 9 27 c7 17 7 29 1 33 -6 4 -10 2 -10 -2 0 -5 -7 -18 -15 -29
-14 -18 -14 -17 -5 9 16 44 12 54 -10 27 -21 -27 -27 -21 -10 10 6 12 7 21 1
25 -6 3 -17 -7 -25 -22 -17 -32 -21 -26 -7 10 14 36 1 42 -22 10 -17 -25 -18
-18 -1 23 3 6 -13 23 -36 38 -34 22 -40 32 -40 60 0 19 5 47 10 62 l11 27 32
-30 c18 -16 102 -92 187 -168z m4598 127 c4 -50 4 -50 -37 -78 -25 -16 -40
-33 -36 -41 16 -39 15 -45 -2 -20 -23 32 -36 26 -22 -10 14 -36 10 -42 -7 -10
-8 15 -19 25 -25 22 -6 -4 -5 -13 1 -25 17 -31 11 -37 -10 -10 -22 27 -26 17
-10 -27 9 -26 9 -27 -5 -9 -8 11 -15 24 -15 29 0 4 -4 6 -10 2 -6 -4 -6 -16 1
-33 l9 -27 -20 25 c-21 27 -26 17 -10 -27 9 -26 9 -27 -5 -9 -8 11 -15 24 -15
29 0 4 -5 5 -10 2 -7 -4 -6 -13 1 -26 6 -12 8 -23 5 -26 -3 -3 -8 2 -12 11 -3
9 -11 16 -16 16 -6 0 -7 -7 -4 -15 17 -43 17 -49 -3 -25 -22 27 -28 13 -10
-23 10 -21 9 -21 -10 2 -17 19 -21 20 -21 6 0 -9 5 -26 10 -38 10 -22 10 -22
-6 1 -22 30 -36 28 -23 -4 5 -15 8 -29 5 -31 -2 -3 -7 5 -11 16 -3 12 -11 21
-17 21 -5 0 -8 -6 -5 -12 2 -7 7 -24 11 -38 6 -25 6 -25 -5 -2 -15 27 -21 27
-44 2 -23 -25 -52 -25 -88 -1 l-28 18 93 85 c289 264 384 346 392 338 5 -5 11
-31 14 -58z m-4455 -201 c97 -84 177 -157 177 -161 0 -5 -4 -12 -10 -15 -5 -3
-10 0 -10 8 0 8 -88 92 -195 187 -107 94 -195 174 -195 178 0 3 12 -6 28 -19
15 -14 107 -94 205 -178z m4307 195 c0 -3 -88 -82 -195 -176 -107 -95 -195
-179 -195 -188 0 -13 -3 -13 -12 -4 -15 15 -22 9 212 211 187 162 190 164 190
157z m-1953 -111 c65 -9 154 -25 198 -36 76 -19 252 -95 242 -105 -2 -3 -27 7
-56 21 -86 44 -374 105 -491 105 l-30 0 0 -226 0 -225 23 7 c44 13 143 56 185
80 l42 25 2 67 2 67 3 -63 4 -62 28 15 c16 8 49 34 75 59 25 25 46 41 46 35 0
-5 -34 -44 -76 -86 -41 -41 -73 -78 -70 -81 8 -7 74 38 114 78 17 18 32 27 32
20 0 -7 -34 -46 -75 -88 -42 -41 -74 -79 -73 -84 2 -6 37 16 77 47 85 65 72
37 -23 -53 -31 -29 -56 -58 -56 -63 0 -14 54 19 108 66 66 58 36 10 -43 -67
-103 -102 -54 -93 59 11 l40 36 -28 -40 c-15 -22 -53 -63 -84 -92 -31 -29 -53
-55 -49 -59 8 -8 46 16 98 63 22 20 42 33 45 31 3 -3 -27 -34 -65 -69 l-71
-64 0 -213 0 -213 22 12 c12 7 47 35 77 63 l55 51 -35 -49 c-19 -27 -53 -64
-76 -83 -52 -43 -60 -76 -10 -42 17 12 49 38 70 58 66 62 39 13 -33 -60 -38
-40 -70 -76 -70 -81 0 -15 58 24 108 72 43 43 45 43 26 12 -10 -19 -45 -58
-76 -88 -54 -51 -69 -74 -50 -74 4 0 36 23 72 52 64 52 65 52 36 14 -15 -21
-48 -56 -72 -78 -42 -38 -54 -58 -36 -58 4 0 36 23 71 50 76 62 65 33 -20 -49
-32 -32 -59 -61 -59 -64 0 -16 23 -4 74 38 70 57 62 35 -9 -25 l-53 -45 -1
-218 c-1 -247 -7 -236 82 -154 71 66 57 37 -23 -47 -39 -41 -67 -77 -62 -80 5
-3 37 18 73 47 72 57 64 42 -25 -50 -33 -34 -57 -65 -53 -69 7 -7 61 30 116
80 l34 31 -23 -33 c-12 -19 -47 -58 -78 -88 -90 -88 -44 -83 51 5 72 67 41 14
-39 -65 -35 -36 -64 -67 -64 -69 0 -17 34 2 83 46 59 53 73 55 33 5 -14 -16
-22 -36 -19 -45 3 -11 2 -12 -4 -4 -6 8 -21 0 -52 -30 -61 -58 -33 -59 42 -1
34 26 52 36 40 23 -22 -25 -23 -31 -23 -244 l0 -218 21 19 c22 19 22 19 10 -3
-6 -12 -16 -25 -21 -28 -6 -3 -10 -18 -10 -32 0 -25 0 -26 20 -8 26 23 26 8 0
-25 -32 -40 -24 -78 10 -47 7 6 4 -2 -8 -20 -33 -47 -27 -82 8 -50 7 6 4 -2
-8 -20 -12 -17 -22 -41 -22 -54 l0 -22 27 24 27 24 -27 -37 c-37 -50 -35 -90
3 -55 7 6 5 0 -6 -14 -18 -25 -20 -45 -22 -243 -2 -209 2 -241 27 -198 6 9 10
13 10 7 1 -5 -8 -21 -19 -35 -11 -14 -20 -36 -20 -49 0 -24 0 -24 21 -5 22 19
22 19 10 -3 -6 -12 -16 -25 -21 -28 -6 -3 -10 -18 -10 -32 l0 -26 27 24 27 24
-27 -37 c-15 -20 -27 -47 -27 -59 0 -21 1 -22 20 -4 26 24 26 12 -1 -25 -15
-19 -20 -37 -16 -56 2 -15 1 -40 -3 -55 -9 -31 -2 -36 20 -16 8 6 7 3 -3 -9
-11 -13 -17 -38 -17 -67 0 -27 -5 -47 -11 -47 -6 0 -10 10 -9 23 1 12 2 27 1
34 -1 7 -35 -12 -77 -42 -41 -30 -103 -68 -137 -84 -59 -29 -70 -31 -229 -37
-168 -7 -168 -7 -168 -31 0 -21 4 -23 53 -23 277 1 637 61 756 126 42 23 44
23 25 3 -24 -27 -111 -70 -194 -97 -266 -86 -716 -93 -1044 -17 -91 21 -226
71 -256 95 -21 17 -16 16 31 -5 59 -26 174 -59 252 -70 l47 -7 0 31 c0 18 -5
31 -12 31 -7 0 -31 5 -52 11 l-39 11 50 35 50 34 7 211 c3 116 4 213 1 216
-10 10 -78 -34 -143 -93 -68 -62 -70 -48 -5 33 43 53 30 55 -22 2 -21 -22 -40
-38 -43 -36 -5 6 46 87 76 118 37 40 18 35 -36 -9 l-46 -38 24 40 c13 22 31
49 40 60 43 53 41 56 -9 15 -62 -51 -58 -35 12 60 41 55 32 54 -32 -4 l-33
-31 15 31 c9 17 32 52 52 78 19 25 33 46 30 46 -3 0 -26 -19 -50 -41 -25 -23
-45 -37 -45 -31 0 17 121 135 172 167 l48 30 0 213 c0 116 -2 212 -5 212 -3 0
-17 -7 -30 -16 -24 -16 -25 -21 -27 -138 l-2 -121 -3 118 -4 118 -43 -30 c-24
-17 -58 -47 -75 -68 -31 -37 -31 -37 -17 -7 8 17 32 53 52 80 38 49 27 46 -33
-10 -18 -16 -33 -27 -33 -23 0 13 51 91 78 120 40 43 11 32 -33 -13 -21 -22
-40 -38 -43 -36 -5 6 46 87 76 118 41 44 20 41 -26 -4 -23 -22 -44 -39 -47
-37 -4 5 30 60 74 121 l25 33 -25 -20 c-13 -11 -37 -31 -53 -45 l-29 -25 13
25 c7 14 31 50 53 80 41 55 32 54 -32 -4 -26 -24 -31 -26 -23 -10 6 12 38 46
72 77 l60 56 -2 217 -3 218 -64 -60 c-56 -52 -62 -55 -47 -27 9 18 30 49 47
68 42 48 23 44 -29 -5 -23 -23 -42 -37 -42 -32 0 5 23 42 52 83 l52 74 -54
-45 -54 -45 23 40 c14 22 40 60 60 85 36 47 25 41 -48 -25 l-33 -30 15 31 c9
17 32 52 52 78 19 25 33 46 30 46 -3 0 -26 -19 -52 -42 l-46 -43 22 42 c11 23
35 58 52 78 43 49 24 44 -28 -7 -24 -23 -43 -37 -43 -30 0 7 32 44 70 83 l70
70 0 209 c0 116 -4 210 -9 210 -4 0 -34 -25 -65 -55 -31 -30 -56 -52 -56 -47
0 10 47 81 73 110 34 37 10 25 -38 -19 -25 -23 -45 -39 -45 -35 0 10 30 56 68
104 42 53 29 55 -23 2 -66 -68 -55 -40 42 100 15 23 14 22 -18 -5 -18 -16 -40
-36 -46 -44 -7 -8 -15 -12 -18 -9 -3 2 18 38 47 79 50 72 47 73 -26 9 l-29
-25 13 25 c7 14 31 50 53 80 41 55 33 54 -32 -4 l-34 -31 20 30 c12 17 44 52
71 77 l50 47 7 215 c5 153 4 216 -3 216 -6 0 -41 -28 -78 -62 -68 -64 -72 -56
-11 23 54 72 54 76 -3 29 l-54 -45 24 40 c13 22 37 58 54 80 32 43 24 39 -48
-25 l-29 -25 13 25 c7 14 31 50 53 80 41 55 33 54 -32 -4 l-34 -31 24 44 c21
38 32 47 79 63 30 10 89 24 130 32 74 12 75 13 78 44 3 29 1 32 -25 32 -49 0
-203 -30 -282 -55 -89 -29 -106 -26 -24 3 110 39 226 65 363 81 131 15 468 12
597 -4z m-2694 -82 c40 -26 110 -85 157 -131 l85 -84 -83 73 c-46 41 -118 98
-160 127 -75 52 -92 68 -92 87 1 6 5 2 11 -8 6 -9 43 -39 82 -64z m4840 53
c-5 -8 -43 -39 -85 -68 -42 -29 -114 -86 -160 -127 l-83 -73 86 85 c48 47 119
106 158 132 40 25 74 52 78 61 3 8 8 13 10 10 3 -2 1 -11 -4 -20z m-3152 -296
c19 -11 19 -41 19 -1760 0 -1719 0 -1749 -19 -1760 -11 -5 -24 -10 -30 -10 -8
0 -11 524 -11 1770 0 1246 3 1770 11 1770 6 0 19 -5 30 -10z m1399 -1760 l0
-1770 -25 12 -25 11 0 1747 0 1747 23 11 c12 6 23 11 25 11 1 1 2 -795 2
-1769z m-2563 1716 c37 -24 131 -80 208 -124 76 -44 178 -108 225 -141 89 -63
424 -340 520 -431 l55 -52 -70 57 c-506 410 -555 446 -745 554 -173 98 -295
181 -265 181 2 0 35 -20 72 -44z m3783 37 c0 -10 -147 -105 -270 -174 -190
-108 -239 -144 -745 -554 l-70 -57 55 52 c96 91 431 368 520 431 47 33 149 97
225 141 77 44 169 100 205 124 66 43 80 50 80 37z m-4973 -413 c467 -68 1866
-324 1897 -346 20 -15 19 -16 -24 -11 -25 3 -37 3 -27 0 31 -8 18 -25 -15 -20
-71 13 -133 19 -128 14 3 -2 56 -15 119 -26 125 -24 153 -38 171 -81 11 -28
11 -43 -6 -135 l-6 -30 26 36 c13 20 41 44 62 54 32 15 38 15 51 2 13 -13 12
-14 -9 -10 -20 3 -28 -5 -56 -59 -34 -67 -87 -132 -100 -124 -5 3 0 56 11 118
22 128 17 157 -31 182 -48 25 -638 139 -1394 270 -650 113 -741 127 -750 118
-28 -28 -60 -151 -63 -242 l-4 -95 10 75 c12 89 25 111 22 37 l-2 -52 14 69
c15 71 32 107 22 46 -16 -100 -14 -118 4 -42 22 90 38 107 20 22 -17 -80 -11
-92 9 -17 17 64 40 113 27 57 -3 -14 -9 -45 -12 -70 -4 -38 -2 -34 15 25 25
83 43 110 24 34 -21 -80 -16 -93 7 -21 23 72 33 79 18 13 -15 -69 -5 -70 14
-1 10 34 20 60 24 57 3 -3 0 -20 -6 -38 -6 -18 -11 -41 -10 -53 0 -12 9 3 18
32 10 29 22 56 26 60 5 4 5 -2 1 -12 -11 -32 -27 -108 -23 -112 2 -2 12 23 22
56 23 75 38 89 19 18 -21 -79 -16 -92 7 -20 23 73 36 78 18 8 -17 -67 -6 -66
15 0 22 70 30 66 11 -5 -16 -60 -4 -58 15 2 16 51 24 40 10 -13 -17 -63 -6
-58 14 6 21 66 32 66 15 0 -17 -67 -6 -66 15 0 19 59 32 71 16 13 -15 -53 -10
-69 7 -21 18 52 29 49 14 -4 -16 -57 -5 -53 14 6 21 63 30 60 14 -4 -17 -67
-6 -66 15 0 19 59 32 71 16 13 -15 -53 -10 -69 7 -21 19 54 27 49 14 -9 -14
-63 -6 -59 18 8 12 32 19 46 16 31 -3 -16 -7 -40 -10 -55 -4 -24 -3 -23 10 7
24 53 36 77 31 58 -3 -9 -7 -34 -10 -55 l-6 -38 16 43 c20 54 28 49 15 -9 -14
-63 -6 -59 18 8 12 32 19 47 17 33 -2 -14 -7 -41 -10 -60 -4 -24 1 -17 15 23
23 62 35 73 19 16 -16 -55 -10 -79 6 -25 18 59 28 55 15 -5 -14 -63 -6 -59 18
8 12 32 19 47 17 33 -17 -100 -17 -98 2 -48 21 56 35 74 22 27 -15 -52 -10
-80 6 -30 15 49 30 70 21 31 -18 -81 -15 -91 8 -30 14 36 23 54 21 40 -3 -14
-7 -43 -10 -65 -6 -38 -5 -37 10 10 18 57 39 87 24 34 -6 -18 -10 -43 -9 -54
1 -11 8 2 16 28 18 61 27 56 13 -8 -15 -66 -7 -66 14 1 19 59 32 71 16 13 -18
-60 -9 -76 10 -19 l19 55 -4 -50 -4 -50 15 48 c20 61 28 56 14 -8 -14 -64 -6
-69 14 -8 l15 48 -4 -50 -4 -50 19 55 19 55 -5 -55 -4 -55 20 55 c11 30 18 44
15 30 -2 -14 -6 -43 -9 -65 -5 -37 -4 -36 14 15 l19 55 -5 -55 -4 -55 14 48
c8 27 17 52 21 55 7 7 -1 -52 -12 -93 -11 -42 9 -4 23 42 l14 48 -4 -55 -4
-55 19 55 18 55 -4 -55 -5 -55 14 48 c19 66 27 70 21 11 l-5 -49 15 45 15 45
-5 -60 c-5 -61 -1 -57 23 25 10 32 10 31 6 -20 l-4 -55 15 45 15 45 -5 -54
c-5 -65 2 -61 21 11 l13 53 -4 -60 -4 -60 14 48 c18 65 23 68 19 10 l-4 -48
15 45 15 45 -5 -55 -4 -55 19 55 18 55 -4 -60 -4 -60 14 50 14 50 2 -45 2 -45
14 50 13 50 -4 -60 c-4 -54 -3 -57 6 -25 21 71 26 75 23 20 -4 -61 1 -57 16
11 9 42 9 41 6 -21 -2 -40 -1 -56 4 -40 4 14 13 41 18 60 10 32 11 29 7 -25
-5 -66 1 -64 14 6 l9 44 2 -50 2 -50 14 50 13 50 -3 -60 c-3 -53 -2 -56 6 -25
19 70 28 77 23 20 -6 -61 1 -57 14 11 l9 44 2 -55 2 -55 9 44 c13 66 22 64 14
-4 -8 -70 3 -69 15 2 l8 48 2 -55 2 -55 13 55 13 55 2 -50 2 -50 8 38 c12 62
22 56 15 -8 -9 -73 1 -69 14 6 l9 54 2 -55 2 -55 14 50 13 50 -4 -59 c-4 -65
5 -68 16 -3 l6 42 3 -55 3 -55 12 60 13 60 2 -55 2 -55 9 44 c13 68 22 63 14
-9 -9 -77 1 -77 14 1 l9 54 2 -60 3 -60 13 60 13 60 -3 -63 c-1 -34 1 -57 6
-50 4 7 8 27 8 45 0 17 4 34 9 38 6 3 7 -18 4 -52 -7 -74 5 -64 16 13 l9 59 2
-60 2 -60 14 55 13 55 -3 -70 c-2 -44 -1 -61 4 -45 4 14 9 43 11 65 2 32 4 26
8 -25 l6 -65 12 65 12 65 -3 -75 c-3 -75 -2 -74 23 25 9 34 10 30 5 -30 -7
-83 2 -82 16 1 l9 59 -4 -78 c-2 -44 -1 -77 1 -74 3 2 11 35 19 73 l15 69 -4
-65 c-3 -36 -8 -74 -11 -85 -6 -16 -5 -17 4 -5 6 8 13 35 17 60 4 25 11 52 16
60 9 15 5 -33 -9 -105 -9 -52 6 -22 21 41 10 41 15 50 15 29 0 -16 -4 -50 -10
-74 -5 -24 -8 -46 -5 -48 4 -5 14 27 30 101 4 15 9 26 12 24 2 -3 -2 -36 -10
-74 -7 -38 -12 -71 -11 -72 2 -2 11 21 21 52 10 31 19 54 21 52 6 -5 -17 -97
-30 -125 -10 -19 -9 -25 1 -29 10 -3 8 -8 -5 -18 -24 -18 -116 -18 -232 1 -52
9 -96 14 -98 11 -5 -4 198 -44 275 -53 44 -5 58 -2 81 15 15 11 33 17 39 13 6
-4 -8 -19 -36 -36 -41 -26 -56 -30 -112 -28 -136 3 -1507 254 -1907 348 l-112
27 -7 35 c-12 64 3 253 25 324 27 84 72 149 106 149 13 0 86 -9 162 -20z
m6303 -22 c46 -63 71 -156 77 -284 3 -61 3 -128 -1 -147 l-7 -35 -112 -27
c-403 -95 -1770 -345 -1907 -348 -57 -2 -71 2 -112 28 -28 17 -42 32 -36 36 6
4 24 -2 39 -13 23 -17 37 -20 81 -15 77 9 280 49 275 53 -2 3 -46 -2 -98 -11
-116 -19 -208 -19 -232 -1 -13 10 -15 15 -5 18 10 4 11 10 1 29 -14 30 -35
120 -29 126 2 2 12 -21 21 -52 22 -76 26 -66 9 19 -8 38 -12 71 -10 74 3 2 8
-9 12 -24 16 -74 26 -106 30 -101 3 2 0 24 -5 48 -6 24 -10 58 -10 74 0 21 5
12 15 -29 15 -63 30 -93 21 -41 -14 72 -18 120 -9 105 5 -8 12 -35 16 -60 4
-25 11 -52 17 -60 9 -12 10 -11 4 5 -3 11 -8 49 -11 85 l-4 65 15 -69 c8 -38
16 -71 19 -73 2 -3 3 30 1 74 l-4 78 9 -59 c14 -83 23 -84 16 -1 -5 60 -4 64
5 30 25 -99 26 -100 23 -25 l-3 75 12 -65 12 -65 6 65 c4 51 6 57 8 25 2 -22
7 -51 11 -65 5 -16 6 1 4 45 l-3 70 13 -55 14 -55 2 60 2 60 8 -53 c11 -74 24
-80 16 -7 -4 41 -3 55 4 45 5 -8 10 -28 10 -45 0 -16 4 -36 8 -43 5 -7 7 16 6
50 l-3 63 13 -60 13 -60 3 60 2 60 9 -54 c13 -78 23 -78 14 -1 -8 72 1 77 14
9 l9 -44 2 55 2 55 13 -60 12 -60 3 55 3 55 6 -42 c11 -65 20 -62 16 3 l-4 59
13 -50 14 -50 2 55 2 55 9 -54 c13 -75 23 -79 14 -6 -7 64 3 70 15 8 l8 -38 2
50 2 50 13 -55 13 -55 2 55 2 55 8 -48 c12 -71 23 -72 15 -2 -8 68 1 70 14 4
l9 -44 2 55 2 55 9 -44 c13 -68 20 -72 14 -11 -5 57 4 50 23 -20 8 -31 9 -28
6 25 l-3 60 13 -50 14 -50 2 50 2 50 9 -44 c13 -70 19 -72 14 -6 -4 54 -3 56
6 25 22 -71 26 -74 23 -15 -3 59 -3 60 6 16 15 -68 20 -72 16 -11 -3 55 2 51
23 -20 9 -32 10 -29 6 25 l-4 60 13 -50 14 -50 2 45 2 45 14 -50 14 -50 -4 60
-4 60 18 -55 19 -55 -4 55 -5 55 15 -45 15 -45 -4 48 c-4 58 1 55 19 -10 l14
-48 -4 60 -4 60 13 -53 c19 -72 26 -76 21 -11 l-5 54 15 -45 15 -45 -5 55 c-4
56 -1 52 23 -30 10 -32 11 -29 7 25 l-5 60 15 -45 15 -45 -5 49 c-6 59 2 55
21 -11 l14 -48 -5 55 -4 55 18 -55 19 -55 -4 55 -4 55 14 -48 c14 -46 34 -84
23 -42 -11 41 -19 100 -12 93 4 -3 13 -28 21 -55 l14 -48 -5 55 -4 55 19 -55
c18 -51 19 -52 14 -15 -3 22 -7 51 -9 65 -3 14 4 0 15 -30 l20 -55 -4 55 -5
55 19 -55 19 -55 -4 50 -4 50 15 -48 c20 -61 28 -56 14 8 -14 64 -6 69 14 8
l15 -48 -4 50 -4 50 19 -55 c19 -57 28 -41 10 19 -16 58 -3 46 16 -13 21 -67
29 -67 14 -1 -14 64 -5 69 13 8 8 -26 15 -39 16 -28 1 11 -3 36 -9 54 -15 53
6 23 24 -34 15 -47 16 -48 10 -10 -3 22 -7 51 -10 65 -2 14 7 -4 21 -40 24
-62 26 -59 10 20 -10 47 2 34 19 -21 16 -50 21 -22 6 30 -13 47 1 29 23 -27 9
-26 15 -36 13 -22 -2 14 -7 41 -10 60 -4 24 1 17 15 -23 24 -67 32 -71 18 -8
-13 60 -3 64 15 5 16 -54 22 -30 6 25 -16 57 -4 46 19 -16 12 -32 19 -47 17
-33 -2 14 -7 41 -10 60 -4 24 1 17 15 -23 24 -67 32 -71 18 -8 -13 58 -5 63
15 9 l16 -43 -6 38 c-3 21 -7 46 -10 55 -2 9 3 1 11 -18 31 -71 36 -78 30 -47
-3 15 -7 39 -10 55 -3 15 4 1 16 -31 24 -67 32 -71 18 -8 -13 58 -5 63 14 9
17 -48 22 -32 7 21 -16 58 -3 46 16 -13 21 -66 32 -67 15 0 -17 66 -6 66 15 0
20 -64 31 -69 14 -6 -15 56 -6 62 13 8 17 -48 22 -32 7 21 -16 58 -3 46 16
-13 21 -66 32 -67 15 0 -17 66 -6 66 15 0 20 -64 31 -69 14 -6 -14 53 -6 64
10 13 19 -60 31 -62 15 -2 -19 71 -11 75 11 5 21 -66 32 -67 15 0 -18 70 -5
65 18 -8 23 -72 28 -59 7 20 -19 71 -4 57 19 -18 10 -33 20 -58 22 -56 4 4
-12 80 -23 112 -4 10 -4 16 1 12 4 -4 16 -31 26 -60 9 -29 18 -44 18 -32 1 12
-4 35 -10 53 -6 18 -9 35 -6 38 4 3 14 -23 24 -57 19 -69 29 -68 14 1 -15 66
-5 59 18 -13 23 -72 28 -59 7 21 -19 76 -1 49 24 -34 17 -59 19 -63 15 -25 -3
25 -9 56 -12 70 -13 56 10 7 27 -57 20 -75 26 -63 9 17 -18 85 -2 68 20 -22
18 -76 20 -58 4 42 -10 62 7 25 21 -46 14 -67 14 -68 16 -24 2 55 8 42 20 -41
9 -60 9 -58 5 31 -3 91 -35 214 -63 242 -9 9 -100 -5 -750 -118 -756 -131
-1346 -245 -1394 -270 -50 -26 -54 -50 -32 -180 11 -63 17 -117 12 -120 -13
-8 -66 57 -100 124 -28 54 -36 62 -56 59 -21 -4 -22 -3 -9 10 13 13 19 13 51
-2 21 -10 49 -34 62 -54 l26 -36 -6 30 c-17 92 -17 107 -6 135 18 43 46 57
171 81 63 11 116 24 119 26 5 5 -57 -1 -127 -14 -34 -5 -47 12 -15 20 9 3 -3
3 -28 0 -43 -5 -44 -4 -24 11 39 29 1901 361 2046 365 33 1 42 -4 68 -41z
m-4442 -673 c-1 -14 -6 -25 -10 -25 -10 0 -10 13 -2 34 9 23 14 19 12 -9z
m297 -5 c-3 -4 -19 -11 -37 -14 -18 -3 -46 -13 -62 -21 -40 -21 -44 -12 -13
28 26 34 27 34 71 24 25 -6 43 -13 41 -17z m1881 -5 c26 -35 27 -58 2 -38 -7
6 -31 16 -53 22 -71 22 -72 23 -25 36 25 7 46 13 47 14 1 1 14 -15 29 -34z
m204 -2 c0 -26 -16 -12 -18 15 -1 21 0 23 8 12 5 -8 10 -21 10 -27z m-2000
-35 c-14 -6 -35 -15 -47 -21 -12 -5 -30 -6 -40 -2 -14 6 -8 10 27 20 25 7 54
13 65 13 17 1 16 -1 -5 -10z m1655 -2 c38 -10 46 -15 32 -21 -10 -4 -28 -3
-40 3 -12 6 -35 15 -52 20 -47 16 1 14 60 -2z m-1647 -66 c7 0 12 -15 12 -39
l0 -39 -111 39 c-62 22 -114 38 -116 36 -2 -2 43 -21 99 -42 112 -42 114 -43
106 -50 -6 -6 -345 128 -359 142 -5 5 73 -3 173 -19 101 -15 189 -28 196 -28z
m1949 46 c-17 -13 -367 -156 -382 -156 -25 0 21 23 120 60 64 23 114 44 112
46 -3 4 -147 -44 -219 -71 -15 -6 -18 -1 -18 32 l0 39 198 31 c108 17 199 31
202 31 3 1 -3 -5 -13 -12z m-2232 -72 c18 -7 17 -8 -50 -50 l-30 -19 30 37
c35 43 30 39 50 32z m2200 -32 l30 -37 -30 19 c-63 40 -67 44 -53 49 20 8 21
8 53 -31z m-2154 -27 c-24 -14 -46 -24 -48 -21 -6 6 60 46 77 46 8 0 -5 -12
-29 -25z m2076 4 c49 -31 34 -34 -18 -4 -24 13 -38 25 -30 25 7 0 29 -10 48
-21z m-1972 -9 c3 -5 0 -10 -7 -10 -8 0 -31 -9 -53 -20 -42 -21 -62 -20 -23 1
12 8 32 19 43 25 26 16 32 16 40 4z m1902 -11 c68 -37 74 -53 8 -19 -22 11
-45 20 -53 20 -7 0 -10 5 -7 10 8 13 9 13 52 -11z m-1807 -15 c0 -1 -12 -10
-27 -20 -20 -13 -25 -13 -16 -2 7 8 11 17 8 19 -2 3 5 5 15 5 11 0 20 -1 20
-2z m40 -18 c-13 -11 -137 -100 -607 -437 l-62 -44 -1 -120 c0 -66 -5 -150
-10 -187 -20 -135 -96 -276 -259 -481 -155 -194 -193 -215 -415 -228 -173 -11
-244 -26 -328 -71 -69 -36 -165 -135 -195 -200 -51 -107 -50 -205 2 -359 14
-40 25 -83 25 -96 0 -36 -23 -84 -75 -154 -63 -84 -92 -150 -110 -244 -17 -86
-19 -193 -5 -215 16 -25 23 -3 21 68 -3 140 39 264 130 383 80 103 83 108 83
157 0 34 -10 70 -39 132 -35 75 -39 94 -39 160 0 94 23 149 95 225 58 62 124
107 201 138 46 18 74 21 213 22 149 0 163 2 210 24 69 34 212 179 324 330 173
233 213 325 230 537 9 115 22 153 64 192 l25 24 12 -22 c7 -12 17 -69 22 -126
10 -97 9 -108 -11 -160 -12 -31 -19 -59 -16 -62 2 -3 7 3 11 12 3 9 46 50 95
91 50 41 88 75 86 75 -3 0 -21 -7 -42 -16 -59 -24 -65 -17 -65 86 0 58 4 89
10 85 6 -3 11 -30 11 -58 2 -38 5 -25 12 48 5 55 13 102 17 105 4 3 13 22 19
42 12 38 71 98 95 98 8 0 58 32 112 70 54 39 106 70 115 70 47 0 49 -6 48
-124 -1 -71 -4 -102 -9 -86 -7 21 -8 19 -9 -17 -1 -35 -8 -51 -38 -85 l-38
-43 44 38 c41 34 62 42 47 19 -3 -5 -88 -71 -188 -147 -212 -161 -363 -307
-458 -444 -100 -145 -201 -277 -284 -374 -119 -138 -120 -139 -111 -336 10
-253 -18 -358 -128 -477 -96 -104 -205 -149 -402 -165 -276 -22 -360 -88 -400
-314 -8 -48 -15 -111 -15 -140 0 -57 -23 -91 -54 -79 -28 11 -38 43 -37 127 1
144 44 272 130 386 22 30 48 73 57 97 17 46 17 48 -26 214 -18 65 -21 100 -17
154 15 177 169 343 367 396 23 6 106 15 184 20 222 13 264 35 409 213 118 144
170 221 217 318 50 106 59 154 61 335 l1 145 51 37 c117 85 642 452 647 452 2
0 -2 -6 -10 -14z m1661 -3 c12 -16 12 -17 -1 -7 -8 6 -22 14 -30 17 -13 5 -12
6 1 6 9 1 23 -7 30 -16z m264 -228 c132 -93 263 -186 292 -206 l51 -38 1 -148
c2 -172 15 -242 67 -345 44 -88 100 -170 211 -305 145 -178 187 -200 409 -213
78 -5 161 -14 184 -20 198 -53 352 -219 367 -396 4 -54 1 -89 -17 -154 -43
-166 -43 -168 -26 -214 9 -24 35 -67 57 -97 86 -114 129 -242 130 -386 1 -84
-9 -116 -37 -127 -31 -12 -54 22 -54 79 0 29 -7 92 -15 140 -40 226 -124 292
-400 314 -197 16 -306 61 -402 165 -110 119 -138 224 -128 477 9 197 8 198
-111 336 -83 97 -184 229 -284 374 -95 137 -246 284 -455 441 -171 129 -229
178 -210 178 5 0 32 -19 59 -42 l51 -42 -37 42 c-31 34 -38 50 -39 85 -1 36
-2 38 -9 17 -6 -18 -8 -4 -9 48 -1 44 -5 72 -12 72 -16 0 -1 62 19 78 30 23
62 12 144 -49 46 -34 101 -70 124 -79 47 -21 90 -67 99 -110 4 -16 10 -30 15
-30 4 0 11 -44 16 -97 6 -71 10 -86 12 -53 2 25 7 49 13 55 12 12 12 -155 0
-174 -9 -14 -18 -12 -86 15 -11 4 21 -27 71 -69 51 -42 95 -84 98 -93 4 -9 9
-15 11 -12 3 3 -4 31 -16 62 -20 52 -21 63 -11 160 5 57 15 114 22 126 l12 22
25 -24 c42 -39 55 -77 64 -192 17 -212 57 -304 230 -537 112 -151 255 -296
324 -330 47 -22 61 -24 210 -24 139 -1 167 -4 213 -22 77 -31 143 -76 201
-138 72 -76 95 -131 95 -225 0 -65 -5 -86 -36 -155 -20 -44 -40 -92 -43 -106
-10 -41 9 -95 53 -147 109 -130 152 -239 158 -396 2 -55 6 -102 9 -104 22 -23
31 96 15 196 -17 108 -43 170 -107 259 -92 128 -97 149 -58 262 52 154 53 252
2 359 -30 65 -126 164 -195 200 -84 45 -155 60 -328 71 -222 13 -260 34 -415
228 -163 205 -239 346 -259 481 -5 37 -10 121 -10 187 l0 120 -288 206 c-158
113 -306 219 -329 235 -24 16 -43 33 -43 37 0 5 21 -7 48 -26 26 -19 155 -110
287 -202z m-2146 182 c52 -10 61 -15 49 -25 -8 -6 -17 -9 -20 -7 -3 3 -32 10
-64 15 -49 8 -61 7 -76 -7 -24 -22 -23 -36 2 -23 11 6 46 10 76 8 l56 -3 -51
-36 c-44 -30 -57 -35 -89 -30 -30 5 -38 11 -40 31 -1 14 7 40 18 58 22 36 36
38 139 19z m2161 -19 c11 -18 19 -44 18 -58 -2 -20 -10 -26 -40 -31 -32 -5
-45 0 -89 30 l-51 36 56 3 c30 2 65 -2 76 -8 25 -13 26 1 2 23 -15 14 -27 15
-76 7 -32 -5 -61 -12 -64 -15 -3 -2 -12 1 -20 7 -12 11 -5 15 44 24 105 20
122 18 144 -18z m-4065 -3 c95 -24 198 -80 327 -177 172 -129 166 -128 471
-128 316 0 426 10 656 55 172 34 235 41 159 17 -49 -16 -271 -59 -363 -71 -44
-6 -226 -11 -405 -13 l-325 -3 -55 26 c-30 15 -100 61 -155 103 -180 137 -300
186 -456 186 -267 0 -462 -136 -475 -333 l-5 -62 21 63 c28 83 72 154 120 192
103 82 268 123 402 101 143 -24 244 -81 398 -227 54 -51 110 -96 124 -100 14
-3 85 -1 157 5 73 6 245 11 383 11 309 -1 325 -5 397 -104 26 -35 41 -104 22
-94 -197 100 -267 123 -420 138 -122 11 -334 -3 -441 -31 -106 -27 -167 -66
-301 -195 -64 -61 -137 -123 -163 -138 -42 -25 -48 -32 -48 -62 0 -37 -20 -54
-67 -54 -33 0 -53 16 -53 42 0 15 -8 18 -43 18 -98 0 -259 63 -354 138 -193
153 -205 435 -27 592 111 97 355 147 519 105z m6113 -1 c183 -37 304 -132 346
-274 45 -152 -9 -320 -135 -420 -97 -77 -258 -140 -356 -140 -35 0 -43 -3 -43
-18 0 -26 -20 -42 -53 -42 -47 0 -67 17 -67 54 0 30 -6 37 -47 62 -27 15 -100
77 -164 138 -134 129 -195 168 -301 195 -107 28 -319 42 -441 31 -153 -15
-223 -38 -419 -138 -20 -10 -5 59 21 94 72 99 88 103 397 104 138 0 310 -5
383 -11 72 -6 143 -8 157 -5 14 4 70 49 124 100 154 146 255 203 398 227 134
22 299 -19 402 -101 48 -38 92 -109 120 -192 l21 -63 -5 60 c-7 111 -72 209
-175 263 -84 45 -196 72 -300 72 -158 0 -260 -42 -458 -187 -184 -136 -150
-129 -533 -125 -179 2 -361 7 -405 13 -92 12 -314 55 -363 71 -76 24 -13 17
159 -17 230 -45 340 -55 656 -55 305 0 299 -1 471 128 127 95 231 152 322 176
73 19 193 20 288 0z m-4463 -104 c60 -6 52 -7 -60 -7 -71 0 -184 3 -250 7
-119 6 -118 7 60 7 99 0 212 -3 250 -7z m2840 0 c-160 -10 -407 -9 -315 0 36
4 148 7 250 7 177 -1 180 -1 65 -7z m-3460 -30 c29 -7 28 -8 -10 -8 -22 -1
-58 3 -80 7 l-40 9 50 0 c28 0 64 -4 80 -8z m3860 -1 c-22 -4 -58 -8 -80 -7
-38 0 -39 1 -10 8 17 4 53 8 80 8 l50 0 -40 -9z m-4080 -9 c18 -8 17 -9 -7 -9
-15 -1 -30 4 -33 9 -7 12 12 12 40 0z m4250 0 c-3 -5 -18 -10 -33 -9 -24 0
-25 1 -7 9 28 12 47 12 40 0z m-4106 -36 c2 -2 -12 -4 -32 -4 -20 0 -38 4 -42
9 -5 9 64 4 74 -5z m3996 6 c-3 -5 -23 -9 -43 -9 l-37 2 35 7 c52 11 52 11 45
0z m-4140 -31 c10 -10 -24 -5 -95 12 -27 7 -21 7 25 3 33 -2 64 -9 70 -15z
m772 15 c-3 -3 -12 -4 -19 -1 -8 3 -5 6 6 6 11 1 17 -2 13 -5z m2690 0 c-3 -3
-12 -4 -19 -1 -8 3 -5 6 6 6 11 1 17 -2 13 -5z m848 -4 c-51 -14 -109 -20 -99
-10 11 10 47 17 94 18 l35 0 -30 -8z m-3770 -20 c-27 -5 -124 -8 -215 -7 -159
1 -161 1 -55 7 61 3 157 6 215 7 85 0 95 -1 55 -7z m3390 0 l120 -6 -165 -1
c-91 -1 -187 2 -215 7 -43 6 -36 7 45 7 52 0 149 -3 215 -7z m-3925 -40 c0
-12 -27 -12 -55 0 -16 7 -13 9 18 9 20 1 37 -3 37 -9z m4255 0 c-28 -12 -55
-12 -55 0 0 6 17 10 38 9 30 0 33 -2 17 -9z m-4442 -17 c-7 -2 -19 -2 -25 0
-7 3 -2 5 12 5 14 0 19 -2 13 -5z m4600 0 c-7 -2 -19 -2 -25 0 -7 3 -2 5 12 5
14 0 19 -2 13 -5z m-3098 -142 c-6 -5 -23 -12 -40 -15 l-30 -6 30 14 c35 18
54 20 40 7z m1610 -6 c17 -7 23 -14 15 -14 -8 0 -28 6 -45 14 -16 7 -23 14
-15 14 8 0 29 -6 45 -14z m-2959 -34 c-7 -11 -85 -25 -93 -17 -8 8 37 25 70
25 16 1 26 -3 23 -8z m4359 -13 c7 -7 -3 -9 -35 -4 -25 4 -49 12 -55 18 -7 7
3 9 35 4 25 -4 50 -12 55 -18z m-3066 -35 c30 -76 42 -241 20 -273 -8 -11 -9
-7 -4 17 7 37 -18 198 -40 249 -11 28 -12 34 -1 34 8 0 19 -12 25 -27z m1706
-7 c-22 -51 -47 -212 -40 -249 5 -24 4 -28 -4 -17 -32 46 6 300 45 300 11 0
10 -6 -1 -34z m-2950 14 c4 -6 -7 -10 -27 -10 -25 0 -29 3 -18 10 19 13 37 13
45 0z m4215 0 c11 -7 7 -10 -18 -10 -20 0 -31 4 -27 10 8 13 26 13 45 0z
m-4490 -15 c-19 -7 -46 -13 -60 -13 -22 0 -20 1 10 13 19 7 46 13 60 13 22 0
20 -1 -10 -13z m420 5 c-8 -5 -35 -9 -60 -9 l-45 2 35 7 c19 4 46 8 60 9 20 0
22 -1 10 -9z m3945 1 l40 -9 -45 -1 c-25 0 -52 4 -60 9 -12 8 -12 10 5 9 11 0
38 -4 60 -8z m405 -6 c30 -12 32 -13 10 -13 -14 0 -41 6 -60 13 -30 12 -32 13
-10 13 14 0 41 -6 60 -13z m-4620 -5 c0 -5 -14 -10 -31 -10 -17 0 -28 4 -24
10 3 6 17 10 31 10 13 0 24 -4 24 -10z m548 1 c9 -5 4 -8 -15 -7 -15 0 -46 -3
-68 -6 l-40 -7 40 14 c48 16 66 17 83 6z m3407 -6 l40 -14 -40 7 c-22 3 -53 6
-68 6 -19 -1 -24 2 -15 7 17 11 35 10 83 -6z m520 5 c4 -6 -7 -10 -24 -10 -17
0 -31 5 -31 10 0 6 11 10 24 10 14 0 28 -4 31 -10z m-4775 -34 c0 -2 -7 -7
-16 -10 -8 -3 -12 -2 -9 4 6 10 25 14 25 6z m5045 -6 c3 -6 -1 -7 -9 -4 -18 7
-21 14 -7 14 6 0 13 -4 16 -10z m-3515 -4 c0 -2 -42 -30 -92 -62 -51 -32 -118
-81 -148 -108 -50 -46 -51 -47 -15 -8 48 52 178 155 198 158 8 1 23 7 34 13
21 12 23 13 23 7z m2027 -26 c13 1 145 -106 188 -152 36 -39 35 -38 -15 8 -30
27 -97 76 -147 108 -92 57 -121 81 -63 51 16 -8 33 -15 37 -15z m-2582 1 c-14
-12 -145 -54 -151 -48 -3 2 26 16 63 30 70 27 104 34 88 18z m3155 -17 c39
-15 69 -29 66 -31 -6 -6 -138 36 -150 48 -17 16 10 10 84 -17z m-3775 6 c-16
-4 -43 -8 -60 -9 -23 0 -26 2 -15 9 8 5 35 9 60 9 41 -1 42 -2 15 -9z m4385 0
c11 -7 8 -9 -15 -9 -16 1 -43 5 -60 9 -27 7 -26 8 15 9 25 0 52 -4 60 -9z
m-4135 -24 c-63 -20 -111 -28 -100 -17 12 12 80 29 115 29 19 0 15 -3 -15 -12z
m3893 -7 c14 -5 23 -12 20 -14 -5 -5 -130 23 -138 32 -7 8 87 -6 118 -18z
m-3783 -8 c-13 -12 -117 -42 -123 -36 -5 5 8 11 70 30 53 17 65 18 53 6z m795
-5 c-35 -32 -392 -297 -396 -293 -2 2 13 22 34 45 22 23 37 44 35 46 -2 2 5 9
14 17 16 13 17 12 4 -3 -21 -27 -3 -21 41 13 46 37 270 189 277 189 3 0 -1 -6
-9 -14z m2105 -59 c50 -33 116 -80 147 -104 60 -45 79 -54 57 -25 -13 15 -12
16 4 3 9 -8 16 -15 14 -17 -2 -2 13 -23 35 -46 21 -23 36 -43 34 -45 -2 -3
-89 60 -192 138 -252 189 -278 214 -99 96z m746 57 c45 -13 87 -34 68 -34 -15
0 -115 33 -123 41 -13 12 -8 12 55 -7z m-4206 -13 c-64 -29 -95 -33 -40 -6 28
14 57 24 65 24 8 0 -3 -8 -25 -18z m845 1 c0 -13 -25 -27 -96 -55 -53 -21
-101 -36 -107 -34 -10 3 164 87 182 87 6 0 11 5 11 10 0 6 2 10 5 10 3 0 5 -8
5 -18z m3090 -21 c73 -30 148 -70 132 -71 -8 0 -56 17 -108 37 -76 30 -94 41
-94 58 0 11 3 15 8 9 4 -5 32 -20 62 -33z m815 14 c28 -14 39 -22 25 -18 -39
10 -107 42 -90 42 8 0 38 -10 65 -24z m-4539 -4 c-3 -4 -23 -11 -43 -15 -21
-3 -49 -9 -63 -12 -21 -5 -22 -4 -7 6 9 6 36 15 60 19 58 12 59 12 53 2z
m4382 -13 c18 -5 31 -12 29 -14 -6 -6 -110 18 -122 28 -11 9 42 2 93 -14z
m-3138 9 c0 -8 -92 -69 -96 -64 -3 3 14 19 38 36 39 27 58 37 58 28z m1856
-28 c25 -17 43 -33 40 -36 -4 -5 -96 56 -96 64 0 8 15 1 56 -28z m-2790 -18
c-8 -12 -66 -32 -66 -22 0 4 15 13 33 19 17 5 33 10 35 11 2 1 1 -3 -2 -8z
m814 5 c0 -4 -79 -71 -190 -161 l-35 -29 30 33 c25 29 184 161 192 161 2 0 3
-2 3 -4z m2199 -124 c68 -66 50 -54 -81 56 -43 35 -78 66 -78 69 0 10 97 -66
159 -125z m721 97 c0 -9 -58 9 -65 21 -3 4 11 3 30 -3 19 -6 35 -14 35 -18z
m-3421 -12 c-27 -16 -102 -47 -106 -44 -2 3 20 18 49 35 29 16 55 25 57 20 1
-5 1 -10 0 -11z m3126 -30 c7 -6 7 -8 0 -6 -70 27 -85 35 -85 47 0 10 10 8 38
-9 20 -12 42 -27 47 -32z m-3705 13 c0 -6 -23 -9 -52 -8 l-53 1 45 7 c25 4 48
8 53 8 4 1 7 -2 7 -8z m4299 -6 c2 -2 -19 -4 -47 -4 -29 0 -52 4 -52 9 0 8 90
3 99 -5z m-3994 -14 c-10 -11 -23 -20 -28 -20 -6 0 -2 9 8 20 10 11 23 20 28
20 6 0 2 -9 -8 -20z m3611 -1 c19 -22 19 -22 -3 -10 -24 12 -39 31 -25 31 5 0
17 -10 28 -21z m-4096 6 c0 -5 -49 -31 -85 -45 -45 -17 -26 0 28 25 57 27 57
27 57 20z m4640 -30 c36 -19 39 -28 5 -15 -36 14 -85 40 -85 45 0 6 41 -10 80
-30z m-3300 22 c0 -1 -91 -92 -202 -202 -128 -127 -168 -163 -111 -100 141
154 313 321 313 302z m1997 -99 c102 -100 289 -298 282 -298 -3 0 -94 90 -204
200 -110 110 -196 200 -191 200 5 0 56 -46 113 -102z m-3097 84 c0 -5 -16 -13
-35 -19 -19 -6 -35 -8 -35 -4 0 5 15 13 33 19 17 5 33 10 35 11 1 1 2 -3 2 -7z
m160 -7 c0 -8 -82 -57 -87 -51 -3 2 12 16 34 30 37 24 53 31 53 21z m335 -16
c-6 -14 -71 -51 -135 -76 -34 -13 -35 -13 -12 4 40 30 145 93 149 89 2 -2 1
-9 -2 -17z m3202 -47 c29 -19 53 -36 53 -38 0 -11 -150 63 -162 81 -26 36 16
19 109 -43z m274 42 c23 -14 39 -28 36 -30 -5 -6 -87 43 -87 51 0 9 10 5 51
-21z m178 10 c12 -12 -8 -10 -34 2 l-30 14 30 -6 c16 -3 32 -8 34 -10z m-3248
-90 c-45 -42 -94 -85 -109 -96 -15 -11 17 23 71 76 55 53 103 96 109 96 5 0
-27 -34 -71 -76z m2316 -20 c112 -109 87 -97 -37 19 -46 42 -78 77 -73 77 6 0
55 -43 110 -96z m-3451 48 c-2 -4 -26 -23 -53 -42 -36 -25 -43 -28 -28 -10 25
29 95 74 81 52z m694 -12 c-6 -11 -16 -20 -22 -20 -6 0 -3 9 7 20 10 11 20 20
22 20 2 0 -1 -9 -7 -20z m3175 0 c10 -11 13 -20 7 -20 -6 0 -16 9 -22 20 -6
11 -9 20 -7 20 2 0 12 -9 22 -20z m755 -36 c23 -25 22 -25 -23 7 -57 39 -72
57 -31 36 16 -8 40 -28 54 -43z m-4525 26 c-10 -16 -65 -52 -65 -42 0 6 15 19
33 31 36 23 41 25 32 11z m135 6 c0 -7 -82 -57 -87 -53 -2 3 13 17 34 31 35
24 53 32 53 22z m3851 -13 c13 -16 12 -17 -3 -4 -10 7 -18 15 -18 17 0 8 8 3
21 -13z m282 -9 c21 -14 36 -28 34 -31 -5 -4 -87 46 -87 53 0 10 18 2 53 -22z
m146 -25 c2 -7 -10 -2 -27 10 -44 31 -53 50 -12 24 19 -12 36 -27 39 -34z
m-4129 12 c0 -5 -22 -28 -50 -51 -63 -53 -65 -43 -3 15 51 48 53 50 53 36z
m3858 -60 c36 -39 25 -36 -28 9 -27 23 -50 47 -50 53 0 11 37 -19 78 -62z
m-3580 40 c-7 -11 -14 -19 -17 -19 -4 1 -19 -4 -34 -10 -47 -20 -44 -13 8 18
60 35 58 35 43 11z m3308 -38 c-8 -8 -75 23 -85 39 -11 17 -5 16 38 -8 27 -16
49 -30 47 -31z m-3711 7 c-21 -22 -44 -40 -50 -40 -11 1 70 80 82 80 4 0 -11
-18 -32 -40z m4059 -9 c17 -17 25 -31 20 -31 -6 0 -28 19 -49 41 -22 23 -31
37 -20 31 11 -6 33 -24 49 -41z m-3418 10 c-10 -11 -45 -41 -79 -68 -57 -44
-60 -46 -39 -15 13 17 28 32 33 32 6 0 7 4 4 10 -3 5 0 8 7 5 7 -2 29 9 48 25
40 34 51 38 26 11z m314 16 c0 -2 -12 -14 -27 -28 l-28 -24 24 28 c23 25 31
32 31 24z m2150 -22 c13 -14 21 -25 18 -25 -2 0 -15 11 -28 25 -13 14 -21 25
-18 25 2 0 15 -11 28 -25z m361 -29 c8 4 9 3 5 -4 -4 -7 -3 -12 3 -12 5 0 20
-15 33 -32 21 -31 18 -29 -39 15 -34 27 -70 58 -80 70 -10 12 1 6 24 -12 24
-18 48 -29 54 -25z m-538 -141 c215 -286 446 -558 876 -1030 149 -163 236
-269 262 -317 20 -36 1 -16 -34 37 -20 30 -128 155 -239 277 -274 302 -413
458 -549 618 -167 198 -459 576 -459 595 0 10 -14 28 143 -180z m-1693 166 c0
-9 -151 -213 -267 -360 -175 -220 -550 -648 -873 -994 -25 -27 -64 -76 -87
-109 -47 -67 -61 -84 -45 -53 25 49 110 153 263 320 434 477 673 758 876 1031
70 95 129 173 131 173 1 1 2 -3 2 -8z m-1520 -26 c-14 -8 -32 -14 -40 -14 -9
0 -4 6 10 14 14 8 32 14 40 14 9 0 4 -6 -10 -14z m4630 0 c14 -8 19 -14 10
-14 -8 0 -26 6 -40 14 -14 8 -19 14 -10 14 8 0 26 -6 40 -14z m-4015 -24 c-3
-6 -11 -11 -17 -11 -6 0 -6 6 2 15 14 17 26 13 15 -4z m565 15 c0 -2 -8 -10
-17 -17 -16 -13 -17 -12 -4 4 13 16 21 21 21 13z m2826 -23 c-7 -7 -26 7 -26
19 0 6 6 6 15 -2 9 -7 13 -15 11 -17z m-3466 14 c0 -2 -16 -19 -37 -38 -37
-35 -37 -23 0 19 18 19 37 29 37 19z m3557 -19 c21 -24 37 -48 31 -48 -2 0
-19 16 -38 35 -19 19 -29 35 -24 35 6 0 20 -10 31 -22z m-3138 -5 c-27 -37
-105 -115 -134 -135 -16 -12 8 18 55 65 82 84 106 106 79 70z m2761 -70 c47
-47 72 -77 55 -65 -40 27 -158 152 -144 152 3 0 43 -39 89 -87z m-3615 57 c-3
-5 -16 -15 -28 -21 -22 -12 -22 -12 -3 10 19 21 43 30 31 11z m225 7 c0 -2
-17 -19 -37 -38 l-38 -34 34 38 c33 34 41 42 41 34z m3980 -32 c19 -19 32 -35
29 -35 -3 0 -20 16 -39 35 -19 19 -32 35 -29 35 3 0 20 -16 39 -35z m216 14
c19 -22 19 -22 -3 -10 -24 12 -39 31 -25 31 5 0 17 -10 28 -21z m-1330 -144
c183 -241 405 -500 768 -900 212 -233 310 -346 327 -377 18 -33 2 -18 -38 35
-22 28 -97 115 -168 192 -368 404 -586 653 -766 875 -88 109 -229 294 -244
320 -17 32 22 -16 121 -145z m-2784 118 c-24 -33 -72 -80 -72 -70 0 8 80 97
87 97 2 0 -5 -12 -15 -27z m1032 -85 c-201 -268 -452 -560 -929 -1083 -71 -77
-146 -164 -168 -192 -36 -48 -47 -60 -47 -49 0 13 122 155 348 404 379 419
654 743 816 964 27 37 51 66 54 64 2 -3 -31 -51 -74 -108z m2808 27 c9 -16 6
-16 -17 5 -15 14 -36 39 -48 55 -20 29 -19 29 17 -5 21 -19 42 -44 48 -55z
m-4070 48 c-24 -34 -62 -69 -62 -57 0 8 70 84 78 84 2 0 -5 -12 -16 -27z
m4298 -57 c0 -13 -38 23 -63 59 -17 26 -15 25 21 -10 23 -21 42 -43 42 -49z
m-3700 60 c0 -2 -8 -10 -17 -17 -16 -13 -17 -12 -4 4 13 16 21 21 21 13z
m3061 -13 c13 -16 12 -17 -3 -4 -10 7 -18 15 -18 17 0 8 8 3 21 -13z m-3881
-3 c-8 -5 -19 -10 -25 -10 -5 0 -3 5 5 10 8 5 20 10 25 10 6 0 3 -5 -5 -10z
m4700 0 c8 -5 11 -10 5 -10 -5 0 -17 5 -25 10 -8 5 -10 10 -5 10 6 0 17 -5 25
-10z m-4590 -35 c-13 -14 -28 -25 -33 -25 -6 0 0 11 13 25 13 14 28 25 33 25
6 0 0 -11 -13 -25z m480 22 c0 -2 -10 -12 -22 -23 l-23 -19 19 23 c18 21 26
27 26 19z m3540 -29 c0 -12 -6 -9 -26 13 -19 22 -19 22 4 8 12 -8 22 -17 22
-21z m460 7 c13 -14 19 -25 13 -25 -5 0 -20 11 -33 25 -13 14 -19 25 -13 25 5
0 20 -11 33 -25z m-4080 11 c0 -2 -8 -10 -17 -17 -16 -13 -17 -12 -4 4 13 16
21 21 21 13z m280 0 c0 -2 -8 -10 -17 -17 -16 -13 -17 -12 -4 4 13 16 21 21
21 13z m2431 -131 c167 -217 357 -440 649 -764 96 -107 188 -209 203 -228 l29
-33 -40 -48 c-22 -26 -59 -65 -81 -87 l-41 -39 17 42 c27 70 12 99 -155 289
-246 281 -432 507 -615 750 l-77 102 0 78 c0 46 4 73 9 68 5 -6 51 -64 102
-130z m690 118 c13 -16 12 -17 -3 -4 -10 7 -18 15 -18 17 0 8 8 3 21 -13z
m280 0 c13 -16 12 -17 -3 -4 -10 7 -18 15 -18 17 0 8 8 3 21 -13z m-2702 -242
c-169 -225 -365 -463 -611 -744 -167 -190 -182 -219 -155 -289 l17 -42 -41 39
c-22 22 -59 61 -81 87 l-40 48 29 33 c15 19 107 121 203 228 306 339 497 565
659 776 l86 113 3 -76 3 -76 -72 -97z m-939 215 c0 -2 -8 -10 -17 -17 -16 -13
-17 -12 -4 4 13 16 21 21 21 13z m207 -10 c0 -8 -3 -14 -6 -13 -3 1 -23 -16
-45 -38 -37 -39 -37 -39 5 13 23 28 43 52 44 52 1 0 2 -6 2 -14z m3212 -38
c42 -52 42 -52 5 -13 -22 22 -42 39 -45 38 -3 -1 -6 5 -6 13 0 8 1 14 2 14 1
0 21 -24 44 -52z m186 32 c10 -11 16 -20 13 -20 -3 0 -13 9 -23 20 -10 11 -16
20 -13 20 3 0 13 -9 23 -20z m-3896 -39 c-19 -22 -38 -41 -43 -41 -9 0 4 20
43 62 38 42 38 25 0 -21z m4206 -40 c-6 -6 -74 71 -74 84 0 6 17 -10 39 -35
22 -24 37 -46 35 -49z m-4032 45 c-15 -25 -74 -88 -79 -84 -2 3 14 26 37 51
40 46 58 60 42 33z m3893 -83 c-5 -6 -67 61 -79 86 -5 9 12 -6 38 -33 25 -27
44 -51 41 -53z m-3826 74 c0 -2 -12 -14 -27 -28 l-28 -24 24 28 c23 25 31 32
31 24z m3710 -22 c13 -14 21 -25 18 -25 -2 0 -15 11 -28 25 -13 14 -21 25 -18
25 2 0 15 -11 28 -25z m-3870 11 c0 -2 -8 -10 -17 -17 -16 -13 -17 -12 -4 4
13 16 21 21 21 13z m4021 -13 c13 -16 12 -17 -3 -4 -17 13 -22 21 -14 21 2 0
10 -8 17 -17z m-3620 -11 c-12 -22 -51 -58 -51 -47 0 9 50 65 57 65 2 0 -1 -8
-6 -18z m3249 -45 c0 -14 -39 23 -52 48 -8 14 -2 12 21 -9 17 -17 31 -34 31
-39z m-3030 49 c0 -2 -8 -10 -17 -17 -16 -13 -17 -12 -4 4 13 16 21 21 21 13z
m2781 -13 c13 -16 12 -17 -3 -4 -17 13 -22 21 -14 21 2 0 10 -8 17 -17z m148
-58 c0 -5 -9 1 -19 14 -11 13 -20 28 -20 35 0 6 9 0 20 -14 11 -14 20 -29 19
-35z m-3069 26 c-10 -20 -30 -37 -30 -26 0 11 25 45 33 45 4 0 3 -9 -3 -19z
m-94 -26 c-9 -14 -21 -25 -27 -25 -6 0 -1 14 11 31 26 36 40 31 16 -6z m3258
-24 c-6 -7 -44 40 -43 54 0 6 11 -3 24 -20 13 -16 22 -32 19 -34z m51 49 c-3
-5 0 -10 7 -10 7 0 26 -16 41 -35 36 -45 28 -44 -23 1 -34 31 -44 54 -24 54 3
0 2 -4 -1 -10z m-3401 -31 c-44 -46 -76 -61 -40 -18 24 29 46 45 65 48 3 1 -8
-13 -25 -30z m-397 -15 c-3 -3 -12 -4 -19 -1 -8 3 -5 6 6 6 11 1 17 -2 13 -5z
m4230 0 c-3 -3 -12 -4 -19 -1 -8 3 -5 6 6 6 11 1 17 -2 13 -5z m-1255 -135
c54 -71 96 -129 94 -129 -5 0 -187 226 -200 248 -4 6 -4 12 1 11 4 0 52 -58
105 -130z m-1715 19 c-111 -141 -133 -160 -36 -30 51 67 94 120 97 117 2 -2
-25 -41 -61 -87z m1635 -470 c-19 -19 -14 -30 10 -22 21 6 22 5 8 -11 -14 -17
-13 -17 10 -10 20 6 23 5 13 -6 -20 -21 -15 -31 10 -18 18 9 20 9 10 -2 -18
-19 -16 -29 5 -22 15 6 16 5 2 -12 -14 -17 -13 -18 9 -12 18 4 21 3 12 -6 -19
-19 -12 -28 12 -16 18 9 20 9 10 -2 -17 -18 -16 -32 1 -26 11 4 13 1 9 -10 -5
-12 -1 -14 18 -8 20 6 22 5 12 -6 -18 -18 -16 -34 2 -19 9 8 15 8 15 2 0 -6
-6 -12 -12 -15 -7 -2 -10 -7 -6 -11 3 -4 17 -2 30 5 l23 12 -20 -23 -20 -23
25 8 c23 7 24 7 10 -10 -14 -17 -13 -18 9 -12 18 4 21 3 12 -6 -19 -19 -12
-28 12 -16 20 11 21 11 8 -5 -18 -22 -7 -33 16 -15 15 11 16 11 6 -1 -18 -19
-16 -33 2 -26 8 3 15 1 15 -4 0 -6 -5 -10 -11 -10 -5 0 -7 -5 -4 -10 5 -8 11
-7 21 1 8 6 17 9 21 6 3 -4 -2 -9 -11 -13 -9 -3 -13 -10 -10 -15 3 -5 15 -4
27 2 22 12 22 12 3 -10 -21 -23 -16 -27 17 -10 22 12 22 12 3 -10 -21 -23 -16
-27 17 -10 l22 12 -20 -23 -20 -23 23 6 c19 4 21 3 11 -9 -17 -20 -3 -30 18
-13 16 13 17 12 4 -4 -17 -22 -7 -34 14 -17 10 8 15 9 15 1 0 -6 -4 -11 -10
-11 -5 0 -10 -5 -10 -11 0 -6 9 -8 23 -4 18 6 20 5 10 -6 -23 -23 -14 -30 15
-12 27 17 27 17 10 -3 -24 -28 -22 -37 5 -23 21 11 21 10 5 -6 -15 -16 -19
-16 -34 -4 -25 21 -251 285 -366 428 -95 118 -99 124 -82 142 9 10 20 19 23
19 3 0 0 -5 -7 -12z m-1582 -28 c13 -8 13 -12 0 -34 -19 -32 -311 -381 -388
-466 -59 -63 -61 -65 -79 -46 -17 18 -17 18 5 7 26 -14 28 -5 5 23 -18 20 -18
20 10 3 28 -18 37 -11 15 12 -11 11 -9 12 10 6 13 -4 22 -2 22 4 0 6 -4 11
-10 11 -5 0 -10 5 -10 11 0 8 5 7 15 -1 21 -17 31 -5 14 17 -13 16 -12 17 4 4
21 -17 35 -7 18 13 -10 12 -8 13 11 9 l23 -6 -20 23 -20 23 22 -12 c33 -17 38
-13 17 10 -19 22 -19 22 3 10 33 -17 38 -13 17 10 -19 22 -19 22 3 10 12 -6
24 -7 27 -2 3 5 -1 12 -10 15 -9 4 -14 9 -11 13 4 3 13 0 21 -6 10 -8 16 -9
21 -1 3 5 1 10 -4 10 -6 0 -11 4 -11 10 0 5 7 7 15 4 18 -7 20 7 3 26 -11 12
-10 12 5 1 23 -18 34 -7 16 15 -13 16 -12 16 9 5 23 -12 30 -3 11 16 -9 9 -6
10 12 6 22 -6 23 -5 9 12 -14 17 -13 17 10 10 l25 -8 -20 23 -20 23 23 -12
c13 -7 27 -9 30 -5 4 4 1 9 -5 11 -7 3 -13 9 -13 15 0 6 6 6 15 -2 18 -15 20
1 3 19 -11 11 -9 12 11 6 19 -6 23 -4 18 8 -4 11 -2 14 9 10 17 -6 18 8 2 26
-11 11 -9 11 10 2 23 -12 30 -3 11 16 -9 9 -6 10 12 6 22 -6 23 -5 9 12 -14
17 -13 18 3 12 20 -7 22 3 5 22 -11 11 -9 11 10 2 24 -13 29 -3 10 18 -11 11
-8 12 12 6 22 -7 23 -6 11 9 -15 18 -5 21 19 6z m1370 -45 c-7 -9 -15 -13 -18
-10 -3 2 1 11 8 20 7 9 15 13 18 10 3 -2 -1 -11 -8 -20z m-2115 -544 c39 -31
92 -70 118 -86 25 -17 46 -33 47 -37 0 -4 -39 -41 -87 -83 -244 -212 -456
-271 -568 -160 -103 104 -45 287 169 538 l67 77 91 -96 c50 -52 124 -121 163
-153z m970 154 c159 -39 336 -57 565 -57 312 0 565 39 725 111 36 17 69 29 72
28 15 -4 2 -131 -14 -149 -85 -95 -393 -157 -776 -158 -277 0 -473 23 -636 77
-142 46 -173 76 -173 165 1 35 1 66 1 69 1 3 31 -10 69 -28 37 -18 112 -44
167 -58z m2498 -80 c150 -201 181 -350 92 -440 -112 -111 -324 -52 -567 160
-49 42 -88 79 -88 83 1 4 27 24 60 45 83 55 192 150 280 245 l75 81 44 -47
c24 -26 71 -83 104 -127z m-2793 33 c0 -7 -7 -22 -15 -32 -8 -11 -15 -27 -15
-36 0 -18 38 -56 84 -84 l29 -18 -5 25 c-3 14 -2 31 2 37 10 16 40 0 40 -22 0
-34 18 -55 61 -72 45 -18 59 -16 34 4 -18 15 -20 54 -2 47 11 -5 169 -42 225
-53 13 -3 22 -12 22 -23 0 -24 17 -37 59 -45 33 -6 33 -5 18 12 -35 39 -23 44
81 35 156 -13 434 -7 585 12 76 9 141 14 145 11 3 -4 1 -16 -6 -26 -16 -26 -7
-26 102 0 148 34 185 56 171 101 -4 12 1 22 15 29 26 14 40 5 40 -27 0 -24 1
-25 22 -11 12 8 31 27 42 42 20 26 20 27 2 61 -24 44 -17 53 14 20 53 -56 18
-118 -96 -174 -349 -170 -1252 -168 -1592 3 -110 56 -140 107 -98 170 17 28
36 34 36 14z m-394 -96 c-4 -3 -14 2 -24 12 -16 18 -16 18 6 6 13 -6 21 -14
18 -18z m2534 13 c-7 -8 -18 -15 -24 -15 -6 0 -2 7 8 15 25 19 32 19 16 0z
m-2550 -37 c0 -12 -6 -9 -26 13 -19 22 -19 22 4 8 12 -8 22 -17 22 -21z m2565
12 c-10 -11 -21 -18 -23 -15 -3 3 3 12 14 20 27 20 30 18 9 -5z m-2586 -27 c2
-1 -4 -10 -14 -19 -15 -16 -17 -16 -33 1 -16 16 -16 17 6 10 24 -7 29 3 10 25
-11 12 -10 12 7 0 11 -8 22 -15 24 -17z m2610 6 c-10 -19 -9 -20 13 -14 22 6
22 5 4 -9 -16 -13 -20 -13 -33 0 -14 13 -13 17 3 29 25 19 27 19 13 -6z
m-2654 -49 c12 -19 -12 -10 -31 11 -19 22 -19 22 3 10 12 -6 25 -16 28 -21z
m2700 10 c-10 -11 -23 -20 -29 -20 -6 1 0 10 13 20 30 26 39 26 16 0z m-2080
-106 c204 -65 398 -89 720 -89 381 1 670 49 831 139 l44 25 0 -60 c0 -70 -16
-91 -96 -132 -350 -177 -1339 -163 -1609 23 -50 35 -55 44 -55 115 l0 54 43
-25 c23 -13 78 -36 122 -50z m205 -253 c302 -54 695 -56 995 -5 79 13 229 51
279 70 16 6 17 -9 14 -202 -3 -203 -4 -210 -29 -259 -52 -100 -181 -174 -374
-215 -130 -28 -461 -39 -625 -20 -279 30 -463 119 -519 250 -21 50 -25 114
-21 426 l0 30 83 -27 c45 -16 134 -37 197 -48z"/>
<path d="M635 6889 c-4 -6 -5 -12 -2 -15 2 -3 7 2 10 11 7 17 1 20 -8 4z"/>
<path d="M6716 6887 c3 -10 9 -15 12 -12 3 3 0 11 -7 18 -10 9 -11 8 -5 -6z"/>
<path d="M1437 7029 c-28 -8 -124 -76 -149 -107 -11 -13 -11 -14 2 -6 9 5 41
29 73 52 78 61 115 64 191 18 214 -131 622 -482 830 -715 210 -235 227 -245
36 -21 -192 226 -551 548 -778 698 -118 78 -158 94 -205 81z"/>
<path d="M1368 6938 c-56 -43 -65 -54 -57 -69 28 -53 -38 -112 -101 -91 -30
11 -36 9 -92 -35 -33 -26 -66 -59 -74 -74 -17 -35 -22 -29 181 -207 88 -76
250 -222 360 -323 317 -291 397 -356 601 -489 147 -95 167 -98 255 -29 28 22
35 34 32 53 -7 35 36 76 80 76 36 0 88 44 105 90 17 45 -24 106 -235 347 -145
166 -263 281 -478 465 -186 159 -225 190 -353 275 -119 80 -134 80 -224 11z
m389 -283 c17 -7 55 -36 84 -64 29 -28 57 -51 61 -51 5 0 7 -4 4 -9 -3 -5 0
-24 8 -42 25 -61 -11 -101 -68 -79 -15 5 -28 10 -29 10 -2 0 -1 -17 1 -39 3
-31 0 -42 -19 -55 -31 -21 -54 -20 -106 5 -28 14 -53 37 -74 69 -21 33 -43 52
-69 63 -63 24 -88 87 -41 100 27 7 46 -8 66 -53 10 -22 25 -40 34 -40 8 0 58
13 110 30 53 16 109 32 125 35 l29 6 -34 35 c-49 51 -130 88 -174 80 -56 -11
-72 -70 -21 -81 11 -2 30 -6 41 -8 11 -3 3 -5 -17 -6 -57 -2 -90 57 -50 91 32
29 72 30 139 3z m146 -334 c13 -5 27 -17 30 -25 6 -15 4 -15 -17 0 -20 12 -32
13 -63 5 -21 -6 -45 -15 -53 -21 -13 -9 -13 -11 0 -20 13 -8 12 -10 -3 -10
-32 0 -16 43 23 62 40 21 50 21 83 9z m12 -51 c3 -5 3 -10 -2 -10 -4 0 -24
-10 -43 -21 -32 -20 -33 -23 -15 -30 16 -6 17 -8 3 -8 -40 -2 -33 49 10 66 36
14 40 15 47 3z m88 -19 c-20 -16 -20 -20 -6 -34 14 -14 12 -17 -23 -32 -21 -8
-45 -23 -51 -32 -7 -9 -16 -14 -19 -10 -13 13 7 38 41 53 36 14 44 28 24 39
-12 8 19 34 41 34 11 0 9 -5 -7 -18z m177 -49 c0 -4 -26 -13 -58 -20 -72 -15
-146 -51 -150 -74 -4 -23 34 -24 84 -3 29 12 35 19 31 35 -3 11 -1 18 4 14 17
-10 9 -43 -17 -63 -33 -26 -75 -27 -105 -2 -20 16 -21 21 -10 35 11 13 11 16
0 17 -8 0 27 16 76 34 87 33 145 44 145 27z m5 -132 c10 -16 -14 -40 -39 -40
-17 1 -16 3 9 14 37 15 18 30 -27 21 -23 -6 -27 -9 -17 -17 11 -7 9 -8 -5 -4
-19 6 -46 -9 -46 -26 0 -5 10 -13 23 -18 13 -5 16 -9 7 -9 -41 -2 -53 49 -18
73 25 18 103 22 113 6z m65 -25 c0 -8 -7 -15 -15 -15 -17 0 -20 -16 -5 -25 18
-11 11 -22 -22 -35 -52 -21 -63 -33 -41 -42 17 -7 16 -8 -2 -5 -33 4 -25 40
13 56 32 15 42 36 20 44 -8 2 0 11 17 20 37 20 35 20 35 2z"/>
<path d="M1503 6533 c-7 -18 37 -63 62 -63 12 0 12 6 4 27 -20 53 -53 71 -66
36z"/>
<path d="M1795 6498 c-33 -11 -91 -27 -128 -36 l-68 -18 31 -42 c38 -53 89
-80 127 -66 39 14 50 37 34 76 -27 69 -27 75 4 46 27 -27 64 -35 99 -22 31 12
11 85 -22 83 -9 -1 -44 -10 -77 -21z"/>
<path d="M1158 6885 c-24 -53 57 -114 110 -84 17 9 28 24 29 39 1 15 0 18 -3
8 -8 -25 -16 -22 -43 15 -13 17 -20 23 -16 12 19 -51 18 -55 -7 -55 -44 0 -73
51 -46 78 9 9 9 12 0 12 -7 0 -18 -11 -24 -25z"/>
<path d="M1129 6793 c-13 -16 -12 -17 4 -4 16 13 21 21 13 21 -2 0 -10 -8 -17
-17z"/>
<path d="M1006 6688 c-9 -12 -16 -37 -16 -56 0 -28 11 -44 73 -104 163 -160
684 -632 822 -744 96 -79 277 -206 348 -245 104 -56 161 -50 246 26 31 29 39
41 30 51 -8 10 -21 5 -62 -27 -66 -50 -102 -57 -160 -31 -117 52 -416 276
-607 456 -116 108 -469 427 -550 496 -47 39 -93 81 -102 92 -21 23 -24 68 -6
86 6 6 9 14 6 17 -3 4 -13 -4 -22 -17z"/>
<path d="M2560 6066 c0 -2 8 -10 18 -17 15 -13 16 -12 3 4 -13 16 -21 21 -21
13z"/>
<path d="M2675 5913 c24 -59 18 -89 -31 -142 -22 -25 -31 -42 -24 -46 15 -9
48 22 71 67 23 45 24 70 4 108 -17 32 -32 41 -20 13z"/>
<path d="M2502 5718 c-7 -7 -12 -22 -12 -34 0 -58 88 -96 129 -55 11 11 21 29
21 39 -1 16 -1 16 -11 -1 -10 -17 -13 -16 -40 15 l-30 33 16 -33 c18 -37 13
-52 -14 -45 -32 8 -54 40 -49 68 6 29 6 29 -10 13z"/>
<path d="M5724 6951 c-259 -172 -607 -487 -818 -741 -44 -52 -86 -103 -94
-112 -8 -10 -13 -18 -10 -18 2 0 59 62 125 138 150 171 249 266 479 462 185
158 293 240 399 305 78 47 113 44 192 -17 32 -23 64 -47 73 -52 34 -21 -14 25
-72 69 -52 39 -67 45 -108 45 -42 0 -59 -8 -166 -79z"/>
<path d="M5862 6989 c-99 -39 -487 -352 -727 -585 -152 -148 -409 -450 -435
-513 -12 -30 -11 -37 5 -68 23 -42 73 -86 91 -79 41 16 99 -38 88 -82 -5 -15
8 -28 56 -61 34 -22 67 -41 72 -41 23 0 138 66 233 132 173 122 252 188 575
483 173 157 354 319 401 358 97 81 119 109 103 135 -6 9 -38 40 -72 69 -60 51
-61 52 -114 46 -67 -7 -94 16 -85 71 5 32 2 38 -36 69 -50 41 -108 77 -122 76
-5 0 -20 -4 -33 -10z m-154 -288 c8 -4 12 -21 10 -36 -2 -22 -13 -33 -45 -49
-23 -12 -42 -27 -43 -34 0 -7 15 -52 34 -100 19 -48 37 -104 41 -124 4 -21 10
-38 12 -38 11 0 64 67 83 106 33 68 19 154 -25 154 -24 0 -48 -38 -41 -67 5
-21 4 -24 -4 -13 -15 23 -12 48 10 70 44 44 100 11 100 -60 -1 -50 -32 -112
-84 -168 -25 -27 -46 -55 -47 -63 0 -9 -2 -10 -5 -2 -4 8 -12 8 -32 -3 -33
-17 -64 -18 -80 -2 -15 15 -16 63 -1 89 9 19 9 19 -10 10 -73 -40 -124 25 -88
112 13 31 88 107 105 107 5 0 14 18 21 39 6 22 23 49 38 60 29 23 32 24 51 12z
m-228 -333 c33 -54 19 -128 -23 -128 -6 0 -3 6 8 13 14 11 17 22 12 56 -3 24
-14 52 -24 63 -18 20 -18 20 -24 -4 -6 -21 -7 -21 -8 -2 -2 45 32 46 59 2z
m-64 -26 c26 -17 45 -82 24 -82 -5 0 -10 7 -10 15 0 9 -11 27 -24 40 -28 28
-21 48 10 27z m-29 -54 c-3 -8 -6 -5 -6 6 -1 11 2 17 5 13 3 -3 4 -12 1 -19z
m-15 -53 c19 -34 46 -43 40 -14 -1 8 7 3 18 -11 21 -27 26 -50 10 -50 -5 0
-13 7 -18 16 -6 11 -11 13 -16 5 -13 -20 -25 -12 -46 29 -20 38 -40 53 -40 28
0 -6 -2 -9 -5 -6 -10 9 7 38 21 38 8 0 24 -16 36 -35z m-44 -25 c-1 -3 9 -27
21 -55 48 -105 63 -165 41 -165 -5 0 -10 9 -10 20 0 27 -39 130 -62 163 -11
15 -26 27 -35 27 -13 0 -15 -8 -10 -41 6 -47 33 -82 56 -74 12 5 13 3 5 -5
-27 -27 -84 26 -84 77 0 31 29 63 55 61 13 -1 23 -5 23 -8z m-79 -116 c26 -33
29 -102 5 -111 -23 -9 -35 16 -32 67 3 39 0 45 -17 45 -12 0 -22 -9 -26 -25
-5 -17 -7 -19 -8 -7 -2 29 18 57 39 57 10 0 28 -12 39 -26z m-9 -149 c15 -9
12 -25 -5 -25 -8 0 -15 7 -15 15 0 20 -16 19 -24 -2 -8 -20 -20 -10 -44 38
-10 19 -23 33 -30 32 -15 -4 -16 13 -1 22 14 9 46 -21 53 -51 4 -13 11 -24 16
-24 18 0 20 20 5 49 -8 17 -15 34 -15 38 1 4 12 -13 25 -39 14 -26 29 -49 35
-53z m-106 -1 c3 -8 2 -12 -4 -9 -6 3 -10 10 -10 16 0 14 7 11 14 -7z"/>
<path d="M5651 6664 c-21 -27 -28 -54 -13 -54 13 0 72 39 72 48 0 10 -21 32
-31 32 -4 0 -17 -12 -28 -26z"/>
<path d="M5552 6543 c-61 -58 -69 -131 -17 -155 19 -9 31 -7 65 11 54 28 57
27 26 -10 -28 -32 -34 -77 -14 -97 16 -16 50 -15 71 1 15 11 14 19 -14 97 -16
47 -36 107 -43 135 -7 27 -18 51 -24 53 -5 1 -28 -14 -50 -35z"/>
<path d="M5230 6031 c0 -17 5 -33 10 -36 6 -4 10 8 10 29 0 20 -4 36 -10 36
-5 0 -10 -13 -10 -29z"/>
<path d="M6178 6898 c27 -27 3 -69 -47 -81 -20 -5 -22 -3 -18 16 2 12 8 31 12
42 4 11 -3 5 -16 -12 -27 -37 -35 -40 -43 -15 -3 10 -4 7 -3 -8 1 -15 12 -30
29 -39 34 -19 73 -7 101 31 17 23 19 31 9 53 -6 14 -17 25 -24 25 -9 0 -9 -3
0 -12z"/>
<path d="M6330 6703 c0 -6 5 -15 10 -18 16 -10 11 -61 -7 -83 -10 -11 -56 -53
-103 -92 -47 -40 -222 -197 -389 -349 -335 -305 -427 -382 -602 -501 -199
-136 -229 -142 -325 -70 -42 32 -54 37 -63 26 -9 -10 -2 -22 30 -51 48 -43 95
-65 141 -65 57 0 220 101 428 264 175 137 864 767 902 825 23 34 23 73 -2 102
-10 13 -19 19 -20 12z"/>
<path d="M4779 6053 c-13 -16 -12 -17 4 -4 16 13 21 21 13 21 -2 0 -10 -8 -17
-17z"/>
<path d="M4666 5901 c-21 -39 -20 -64 3 -109 23 -45 56 -76 71 -67 7 4 -2 21
-24 46 -42 46 -53 82 -38 123 16 40 7 45 -12 7z"/>
<path d="M4846 5706 c8 -33 -18 -66 -53 -66 -27 0 -28 2 -8 43 l16 32 -30 -33
c-27 -31 -30 -32 -40 -15 -10 17 -10 17 -11 1 0 -28 37 -58 70 -58 59 0 104
78 64 111 -13 11 -14 9 -8 -15z"/>
<path d="M3498 6734 c17 -30 -32 -247 -62 -276 l-21 -21 40 7 c22 3 48 6 59 6
15 0 16 3 6 15 -12 15 -7 149 10 243 7 40 6 42 -17 42 -19 0 -22 -3 -15 -16z"/>
<path d="M3958 6727 c33 -19 50 -48 67 -113 23 -89 20 -121 -15 -154 l-30 -28
74 -7 c40 -3 89 -10 109 -15 26 -5 37 -4 36 4 0 6 -22 74 -47 151 l-47 140
-40 11 c-23 6 -61 15 -85 18 -41 6 -43 5 -22 -7z"/>
<path d="M3299 6713 c-12 -3 -70 -130 -136 -300 -3 -9 4 -10 29 -3 18 4 46 11
62 15 22 4 26 9 17 18 -6 6 -11 28 -11 48 0 39 42 167 67 206 16 24 11 27 -28
16z"/>
<path d="M3185 6671 c-22 -13 -51 -58 -103 -160 -81 -156 -81 -146 -2 -125 19
5 163 304 147 304 -7 0 -25 -9 -42 -19z"/>
<path d="M4164 6665 c3 -11 27 -76 54 -145 47 -122 49 -125 86 -138 22 -7 41
-11 43 -9 3 4 -22 54 -132 261 -5 10 -21 26 -34 35 -22 14 -23 14 -17 -4z"/>
<path d="M3345 6193 c-19 -3 -20 -10 -17 -119 3 -99 1 -119 -14 -135 -16 -18
-16 -19 3 -19 40 0 85 13 72 20 -17 11 -22 91 -12 183 6 53 6 77 -1 76 -6 -1
-20 -4 -31 -6z"/>
<path d="M3969 6173 c29 -24 42 -84 29 -131 -6 -20 -27 -53 -48 -73 l-38 -37
79 -6 c69 -7 265 -43 327 -62 l22 -6 0 130 0 130 -77 21 c-80 21 -250 51 -292
51 l-23 0 21 -17z"/>
<path d="M3063 6130 c-22 -9 -23 -14 -23 -139 l0 -130 31 11 c28 9 29 13 22
42 -10 39 -10 150 -1 194 8 34 6 36 -29 22z"/>
<path d="M2965 6088 c-61 -33 -65 -44 -65 -165 0 -62 2 -113 4 -113 2 0 24 9
50 20 l46 21 0 124 c0 69 -3 125 -7 125 -5 0 -17 -6 -28 -12z"/>
<path d="M4400 5963 c0 -129 0 -130 25 -141 14 -7 28 -12 30 -12 8 0 5 224 -3
235 -4 6 -17 19 -29 29 l-23 19 0 -130z"/>
<path d="M3600 5794 c0 -36 0 -37 35 -31 19 3 60 3 92 0 l57 -6 -90 -32 -89
-33 -3 -207 -2 -207 24 6 c14 3 37 11 51 16 l25 10 2 167 1 168 10 -160 c5
-88 11 -162 12 -163 2 -2 20 2 41 10 l37 13 -7 155 c-3 85 -6 194 -6 243 l0
87 -95 0 -95 0 0 -36z"/>
<path d="M3288 5563 l-68 -36 0 -197 c0 -109 3 -205 6 -213 4 -12 19 -7 75 25
l69 41 0 208 c0 115 -3 209 -7 209 -5 0 -38 -17 -75 -37z"/>
<path d="M4073 5415 c-12 -8 -44 -27 -72 -41 -28 -14 -51 -27 -51 -29 0 -12
145 59 155 75 9 15 -7 12 -32 -5z"/>
<path d="M4020 5314 c-41 -24 -71 -44 -66 -44 18 0 156 71 156 80 0 15 -9 11
-90 -36z"/>
<path d="M4040 5254 c-81 -50 -89 -55 -50 -40 70 27 110 50 110 63 0 7 -1 13
-2 12 -2 -1 -28 -16 -58 -35z"/>
<path d="M4074 5200 c-6 -6 -39 -26 -75 -45 -35 -19 -61 -35 -57 -35 17 0 158
71 158 80 0 13 -13 13 -26 0z"/>
<path d="M4032 5103 c-35 -19 -61 -37 -58 -40 7 -7 126 56 126 67 0 13 4 15
-68 -27z"/>
<path d="M4047 5059 c-27 -16 -82 -44 -123 -61 l-74 -32 0 -102 c0 -55 -3
-150 -7 -209 l-6 -108 27 7 c36 9 207 83 218 94 8 8 25 443 17 441 -2 0 -26
-14 -52 -30z"/>
<path d="M3760 4931 l-35 -16 3 -200 c2 -110 5 -201 7 -203 2 -2 20 1 40 8
l36 12 -2 198 c-1 109 -5 203 -8 208 -3 5 -21 2 -41 -7z"/>
<path d="M3643 4893 l-43 -15 0 -210 c0 -196 1 -210 18 -203 9 4 27 10 40 13
13 2 26 10 28 16 2 6 3 102 2 212 l-3 201 -42 -14z"/>
<path d="M3328 4769 c-16 -9 -18 -31 -18 -219 0 -116 2 -210 5 -210 2 0 16 5
30 12 l25 11 0 209 c0 217 -1 221 -42 197z"/>
<path d="M3258 4730 l-28 -15 0 -212 c0 -117 3 -213 8 -213 4 0 17 8 30 18 22
17 22 19 20 228 l-3 210 -27 -16z"/>
<path d="M4074 4600 c-6 -6 -39 -26 -75 -45 -35 -19 -60 -35 -56 -35 19 0 157
70 157 79 0 14 -13 14 -26 1z"/>
<path d="M4065 4521 c-6 -5 -34 -21 -62 -36 -56 -29 -69 -41 -29 -25 39 14
126 60 126 65 0 8 -26 5 -35 -4z"/>
<path d="M4017 4421 c-37 -21 -70 -41 -75 -46 -4 -4 -2 -6 3 -3 6 3 40 19 78
36 37 17 67 36 67 42 0 13 6 15 -73 -29z"/>
<path d="M4022 4353 c-35 -19 -61 -37 -59 -40 8 -7 127 56 127 67 0 12 6 15
-68 -27z"/>
<path d="M4010 4273 c-41 -24 -72 -43 -69 -43 12 0 114 48 134 63 43 32 6 21
-65 -20z"/>
<path d="M3971 4209 c-63 -32 -120 -60 -125 -62 -7 -2 -13 -54 -17 -128 l-5
-124 -2 122 -2 122 -45 -16 -45 -15 0 -209 c0 -115 2 -209 5 -209 12 0 171 62
258 100 l97 42 0 219 c0 120 -1 218 -2 217 -2 -1 -54 -28 -117 -59z"/>
<path d="M3640 4075 l-35 -12 -3 -212 -2 -211 37 15 c20 9 38 17 40 19 2 2 2
95 1 208 l-3 205 -35 -12z"/>
<path d="M3333 3958 c-23 -11 -23 -13 -23 -215 0 -173 2 -205 15 -209 8 -4 22
-1 30 6 12 10 15 49 15 221 0 115 -3 209 -7 208 -5 0 -18 -5 -30 -11z"/>
<path d="M3251 3913 c-19 -17 -21 -29 -23 -231 -2 -116 0 -212 3 -212 4 0 18
9 32 20 l26 20 1 210 c0 122 -3 210 -9 210 -5 0 -18 -8 -30 -17z"/>
<path d="M4015 3750 c-38 -22 -67 -40 -63 -40 17 0 138 60 138 70 0 13 5 15
-75 -30z"/>
<path d="M4018 3681 c-81 -45 -96 -58 -42 -35 69 29 114 54 114 64 0 12 7 15
-72 -29z"/>
<path d="M4010 3603 c-83 -50 -83 -50 13 -9 37 16 67 35 67 43 0 7 -1 13 -2
12 -2 -1 -37 -21 -78 -46z"/>
<path d="M4005 3529 c-38 -21 -67 -39 -63 -39 16 0 148 63 148 71 0 13 -9 10
-85 -32z"/>
<path d="M4172 3512 l-32 -27 0 -212 c0 -117 3 -213 8 -213 4 0 20 10 35 23
l28 22 -3 217 -3 217 -33 -27z"/>
<path d="M4010 3459 c-36 -21 -62 -39 -58 -39 16 0 138 62 138 70 0 15 -10 11
-80 -31z"/>
<path d="M4030 3418 c-30 -17 -109 -52 -175 -79 l-120 -48 -3 -210 -2 -209 87
33 c138 51 264 107 269 119 2 6 3 104 2 218 l-3 207 -55 -31z"/>
<path d="M3633 3258 l-33 -11 0 -209 0 -209 23 7 c73 23 68 11 63 141 -2 65
-5 157 -5 206 -1 48 -4 87 -8 86 -5 -1 -23 -6 -40 -11z"/>
<path d="M3333 3143 c-10 -3 -13 -57 -13 -219 0 -118 3 -214 6 -214 3 0 14 5
25 10 18 10 19 23 19 220 0 215 -1 218 -37 203z"/>
<path d="M4165 3036 c-22 -19 -37 -37 -33 -41 12 -12 78 35 78 56 0 10 -1 19
-2 19 -2 0 -21 -16 -43 -34z"/>
<path d="M4166 2965 c-21 -19 -36 -39 -34 -45 5 -17 78 38 78 60 0 25 2 26
-44 -15z"/>
<path d="M4074 2970 c-6 -6 -39 -26 -75 -45 -35 -19 -60 -35 -56 -35 19 0 157
70 157 79 0 14 -13 14 -26 1z"/>
<path d="M4168 2894 c-36 -32 -48 -54 -30 -54 18 0 74 57 71 72 -3 14 -11 10
-41 -18z"/>
<path d="M4023 2867 c-29 -17 -51 -32 -49 -35 5 -4 126 56 126 63 0 11 -28 1
-77 -28z"/>
<path d="M4162 2817 c-33 -34 -39 -47 -23 -47 16 0 71 51 71 66 0 22 -13 17
-48 -19z"/>
<path d="M4005 2785 c-44 -25 -77 -45 -74 -45 14 0 157 69 164 79 11 18 -7 12
-90 -34z"/>
<path d="M4163 2746 c-47 -45 -42 -64 7 -29 22 15 40 36 40 46 0 23 -10 20
-47 -17z"/>
<path d="M4018 2721 c-76 -41 -99 -60 -48 -38 69 29 130 61 130 69 0 12 -9 9
-82 -31z"/>
<path d="M4163 2692 l-31 -27 -4 -218 c-1 -119 -1 -217 2 -217 3 0 22 14 43
31 l38 31 -2 214 c-1 118 -4 214 -8 214 -3 -1 -20 -13 -38 -28z"/>
<path d="M4074 2680 c-6 -6 -39 -26 -75 -45 -35 -19 -60 -35 -56 -35 18 0 157
71 157 80 0 13 -13 13 -26 0z"/>
<path d="M4055 2618 c-40 -26 -118 -63 -235 -108 l-95 -38 -5 -206 c-4 -156
-2 -206 7 -206 21 0 201 68 288 109 l85 40 0 215 c0 119 -3 216 -7 215 -5 0
-21 -10 -38 -21z"/>
<path d="M3640 2446 l-35 -13 -3 -211 -2 -210 51 16 52 17 -7 134 c-3 74 -6
167 -6 208 0 40 -3 73 -7 72 -5 0 -24 -6 -43 -13z"/>
<path d="M3338 2329 c-16 -9 -17 -27 -11 -217 3 -114 7 -209 9 -211 2 -2 10 2
19 9 13 10 15 46 15 221 0 115 -3 209 -7 209 -5 0 -16 -5 -25 -11z"/>
<path d="M4162 2220 c-24 -22 -42 -44 -40 -50 6 -18 88 48 88 70 0 11 -1 20
-2 20 -2 -1 -23 -18 -46 -40z"/>
<path d="M4162 2149 c-54 -51 -51 -67 5 -31 30 19 43 34 43 50 0 12 -1 22 -2
22 -2 0 -22 -19 -46 -41z"/>
<path d="M4085 2161 c-6 -5 -44 -28 -85 -50 -41 -22 -71 -41 -66 -41 18 0 176
79 176 89 0 13 -13 14 -25 2z"/>
<path d="M4159 2071 c-24 -21 -41 -42 -37 -46 11 -11 88 46 88 66 0 11 -2 19
-4 19 -2 0 -23 -18 -47 -39z"/>
<path d="M4085 2090 c-4 -6 -34 -24 -67 -41 -33 -17 -58 -33 -55 -35 7 -8 147
65 147 76 0 13 -17 13 -25 0z"/>
<path d="M4160 2000 c-54 -46 -47 -64 10 -25 48 33 51 37 42 52 -5 7 -23 -2
-52 -27z"/>
<path d="M4020 1979 c-46 -27 -81 -49 -78 -49 12 0 133 58 153 73 45 35 4 21
-75 -24z"/>
<path d="M4161 1930 c-24 -21 -77 -58 -117 -81 -40 -24 -71 -45 -69 -47 6 -7
179 87 213 115 19 17 29 33 25 39 -6 8 -22 -1 -52 -26z"/>
<path d="M4095 1951 c-6 -5 -44 -28 -85 -50 -41 -22 -71 -41 -67 -41 22 0 167
75 167 86 0 16 -3 17 -15 5z"/>
<path d="M3330 1725 c0 -18 5 -25 20 -25 15 0 20 7 20 25 0 18 -5 25 -20 25
-15 0 -20 -7 -20 -25z"/>
<path d="M455 5079 c-4 -6 -5 -12 -4 -13 2 -2 49 -11 104 -20 55 -10 111 -20
125 -23 24 -5 25 -5 5 10 -11 9 -18 17 -15 17 3 0 63 -7 134 -15 71 -8 131
-13 134 -10 3 3 1 5 -5 5 -6 0 -101 14 -211 30 -219 33 -257 35 -267 19z"/>
<path d="M1455 4919 c113 -34 682 -133 734 -127 14 2 -19 11 -74 21 -55 9
-226 40 -380 67 -271 48 -342 58 -280 39z"/>
<path d="M2298 4733 c7 -3 16 -2 19 1 4 3 -2 6 -13 5 -11 0 -14 -3 -6 -6z"/>
<path d="M450 4626 c0 -2 32 -12 70 -21 77 -19 105 -37 37 -24 -47 9 -72 11
-66 5 2 -2 85 -20 184 -41 99 -20 189 -38 200 -41 11 -2 2 5 -20 16 -39 20
-39 20 -9 16 143 -22 97 -7 -126 39 -301 62 -270 56 -270 51z"/>
<path d="M1191 4446 c3 -3 202 -41 444 -84 503 -91 532 -96 525 -89 -3 3 -77
19 -165 37 -153 31 -216 49 -171 50 11 0 17 2 14 5 -7 7 -339 67 -344 62 -3
-2 23 -10 56 -17 33 -7 60 -16 60 -20 0 -4 -89 8 -197 26 -198 34 -230 38
-222 30z"/>
<path d="M6730 5075 c-47 -8 -136 -21 -198 -31 -62 -9 -111 -18 -109 -20 2 -2
62 3 133 11 71 8 131 15 134 15 3 0 -4 -8 -15 -17 -20 -15 -19 -15 4 -10 14 3
71 14 128 23 64 11 102 21 100 28 -5 16 -79 16 -177 1z"/>
<path d="M5790 4910 c-52 -9 -219 -39 -370 -66 -151 -27 -263 -50 -249 -52 52
-6 621 93 734 127 28 9 28 9 5 9 -14 0 -68 -8 -120 -18z"/>
<path d="M5048 4733 c7 -3 16 -2 19 1 4 3 -2 6 -13 5 -11 0 -14 -3 -6 -6z"/>
<path d="M6630 4574 c-215 -46 -257 -59 -116 -38 30 4 30 4 -9 -16 -22 -11
-31 -18 -20 -16 11 3 101 21 200 41 99 21 182 39 184 41 6 6 -19 4 -66 -5 -68
-13 -40 5 37 24 38 9 70 19 70 21 0 6 -13 4 -280 -52z"/>
<path d="M5938 4416 c-104 -18 -188 -30 -188 -26 0 4 27 13 60 20 33 7 59 15
56 17 -5 5 -337 -55 -344 -62 -3 -3 3 -5 14 -5 45 -1 -18 -19 -171 -50 -88
-18 -162 -34 -165 -37 -7 -7 22 -2 525 89 242 43 441 81 444 84 9 9 -48 1
-231 -30z"/>
<path d="M2598 3874 c-53 -28 -75 -115 -42 -162 18 -26 65 -52 94 -52 64 0
120 59 120 125 0 53 -53 105 -106 105 -22 -1 -51 -7 -66 -16z m117 -39 c67
-67 -18 -175 -103 -131 -16 8 -32 22 -35 30 -7 17 3 21 78 32 l50 7 -65 9
c-35 5 -67 11 -70 14 -3 3 10 19 28 35 41 37 84 38 117 4z"/>
<path d="M2625 3840 c-12 -4 -27 -16 -35 -26 -14 -16 -13 -17 5 -10 39 15 83
18 104 7 13 -7 21 -8 21 -2 0 11 -52 42 -67 40 -4 0 -17 -4 -28 -9z"/>
<path d="M2651 3580 c-13 -11 -19 -20 -14 -20 6 0 18 9 28 20 23 25 17 25 -14
0z"/>
<path d="M2332 3475 c-3 -34 -36 -200 -47 -230 -5 -14 0 -11 18 10 30 35 40
84 35 180 -2 39 -5 57 -6 40z"/>
<path d="M1823 2618 c-19 -24 -21 -45 -11 -99 16 -88 23 -83 23 17 0 52 -1 94
-1 94 -1 0 -6 -6 -11 -12z"/>
<path d="M1335 2556 c-121 -31 -229 -116 -280 -220 -138 -283 205 -543 522
-396 164 76 235 231 184 400 -19 60 -31 82 -75 125 -86 86 -229 123 -351 91z
m217 -42 c61 -20 140 -91 167 -148 72 -154 7 -317 -157 -398 -62 -31 -73 -33
-172 -33 -123 0 -169 16 -246 87 -122 111 -116 279 15 401 113 106 255 139
393 91z"/>
<path d="M1776 2357 c23 -68 15 -197 -15 -255 -30 -58 -95 -127 -148 -159 -95
-55 -242 -79 -332 -53 -53 15 -50 3 4 -21 40 -18 62 -21 136 -17 78 4 97 8
165 43 143 73 234 197 236 322 1 66 -15 128 -43 164 -19 24 -19 24 -3 -24z"/>
<path d="M1145 1813 c-12 -2 -34 -15 -50 -28 l-30 -25 40 16 c21 9 71 22 110
29 l70 13 -60 0 c-33 -1 -69 -3 -80 -5z"/>
<path d="M4624 3856 c-39 -39 -45 -89 -17 -137 18 -31 67 -59 103 -59 29 0 76
26 94 52 34 48 11 135 -44 163 -50 26 -97 20 -136 -19z m138 -25 c18 -16 31
-32 28 -35 -3 -3 -35 -9 -70 -14 l-65 -9 50 -7 c75 -11 85 -15 78 -32 -3 -8
-19 -22 -35 -30 -85 -44 -170 64 -103 131 33 34 76 33 117 -4z"/>
<path d="M4668 3835 c-16 -9 -28 -20 -28 -26 0 -6 8 -5 21 2 21 11 63 8 104
-7 l20 -7 -20 21 c-27 28 -65 35 -97 17z"/>
<path d="M4697 3579 c12 -12 24 -21 27 -18 2 2 -8 13 -22 23 l-27 19 22 -24z"/>
<path d="M5023 3400 c2 -93 5 -109 27 -137 28 -38 35 -37 20 3 -6 16 -20 76
-30 134 l-20 105 3 -105z"/>
<path d="M5525 2535 c0 -52 3 -88 7 -82 13 25 26 122 18 143 -18 46 -25 29
-25 -61z"/>
<path d="M5818 2551 c-155 -50 -231 -151 -232 -311 -1 -103 20 -156 89 -225
184 -184 525 -145 632 73 57 116 27 251 -80 355 -112 109 -272 151 -409 108z
m195 -26 c79 -21 131 -49 188 -102 131 -122 137 -290 15 -401 -77 -71 -123
-87 -246 -87 -95 0 -111 3 -168 29 -195 90 -251 316 -116 466 46 51 87 76 155
94 70 19 102 19 172 1z"/>
<path d="M5578 2378 c-26 -40 -41 -100 -40 -161 2 -125 93 -249 235 -322 68
-34 88 -39 162 -43 65 -3 96 0 130 13 52 19 61 38 13 24 -89 -25 -237 -1 -331
54 -53 32 -118 101 -148 159 -30 58 -38 187 -16 252 18 51 16 57 -5 24z"/>
<path d="M6145 1805 c39 -7 89 -20 110 -29 l40 -16 -29 24 c-33 28 -68 36
-140 35 l-51 -1 70 -13z"/>
<path d="M468 4005 c-135 -37 -236 -148 -254 -277 -8 -58 18 -157 55 -212 65
-94 162 -156 280 -178 216 -40 471 148 471 346 0 149 -119 280 -291 321 -77
18 -196 18 -261 0z m234 -26 c227 -48 342 -230 257 -406 -46 -96 -164 -179
-287 -203 -243 -48 -485 187 -417 405 51 161 240 247 447 204z"/>
<path d="M185 3645 c11 -118 88 -234 197 -298 53 -31 181 -67 237 -67 46 0 55
-7 74 -50 13 -29 16 -31 16 -12 2 39 31 71 100 107 144 76 227 185 237 311 l5
59 -19 -67 c-33 -121 -116 -214 -248 -275 -53 -25 -70 -28 -169 -28 -102 0
-115 2 -175 31 -125 59 -208 157 -242 284 l-18 65 5 -60z"/>
<path d="M1247 3649 c-67 -16 -157 -72 -178 -111 -6 -12 8 -5 38 18 56 43 139
84 171 84 12 0 22 5 22 10 0 11 -1 11 -53 -1z"/>
<path d="M1990 3627 c14 -6 57 -26 95 -44 39 -19 61 -26 50 -17 -27 22 -137
74 -155 73 -8 0 -4 -5 10 -12z"/>
<path d="M6620 4002 c-166 -44 -280 -173 -280 -318 0 -198 255 -386 471 -346
163 30 288 139 325 283 44 170 -64 336 -248 385 -71 18 -188 17 -268 -4z m324
-51 c196 -96 231 -317 75 -473 -89 -89 -216 -131 -331 -108 -276 54 -409 330
-240 499 85 85 195 123 339 117 80 -3 102 -8 157 -35z"/>
<path d="M7161 3643 c-23 -118 -115 -227 -241 -287 -60 -29 -73 -31 -175 -31
-99 0 -116 3 -169 28 -132 61 -215 154 -248 275 l-19 67 5 -59 c10 -126 93
-235 237 -311 69 -36 98 -68 100 -107 0 -19 3 -17 16 12 19 45 22 46 102 54
92 8 171 37 245 90 93 67 149 159 162 269 9 74 0 73 -15 0z"/>
<path d="M6060 3650 c0 -6 10 -10 23 -10 31 0 114 -41 170 -84 30 -23 44 -30
38 -18 -14 26 -73 70 -124 91 -53 23 -107 34 -107 21z"/>
<path d="M5305 3611 c-33 -16 -69 -36 -80 -45 -11 -9 12 -2 50 17 39 18 81 38
95 44 14 7 18 12 10 12 -8 1 -42 -12 -75 -28z"/>
<path d="M1826 1624 c-69 -80 -150 -195 -162 -230 -4 -10 14 10 40 44 26 35
83 101 127 147 65 67 79 87 71 101 -8 14 -20 4 -76 -62z"/>
<path d="M2027 1465 c-43 -49 -48 -58 -40 -82 l9 -27 50 45 c44 40 43 38 -14
-24 -34 -37 -62 -71 -62 -75 0 -4 -15 -16 -32 -27 -18 -10 -51 -33 -73 -51
-49 -39 -137 -84 -165 -84 -31 0 -24 -16 16 -35 50 -24 150 -17 229 16 81 34
189 107 271 183 l68 62 -35 24 c-19 13 -64 47 -101 77 -37 29 -68 53 -70 52
-2 0 -25 -25 -51 -54z m173 -115 c0 -19 -72 -90 -91 -90 -22 0 -23 4 -8 33 23
45 99 89 99 57z m-140 -130 c0 -5 -7 -10 -15 -10 -8 0 -15 5 -15 10 0 6 7 10
15 10 8 0 15 -4 15 -10z"/>
<path d="M1848 1413 c-26 -30 -30 -60 -13 -92 40 -77 160 -30 139 54 -13 51
-94 75 -126 38z m90 -15 c17 -17 15 -64 -4 -82 -48 -49 -116 28 -72 82 13 15
60 16 76 0z"/>
<path d="M1875 1387 c-21 -16 -14 -67 10 -67 13 0 13 3 3 21 -11 17 -10 22 5
33 9 7 17 16 17 20 0 10 -15 7 -35 -7z"/>
<path d="M1820 1266 c-7 -9 -44 -32 -84 -52 -65 -33 -67 -36 -31 -29 45 7 157
65 156 80 0 17 -27 17 -41 1z"/>
<path d="M2900 1652 c0 -41 11 -60 50 -86 41 -27 50 -21 50 34 0 49 0 49 -46
70 -26 11 -48 20 -50 20 -2 0 -4 -17 -4 -38z"/>
<path d="M4423 1678 c-20 -9 -23 -19 -23 -65 l0 -54 30 21 c26 18 30 28 30 66
0 47 -2 49 -37 32z"/>
<path d="M3040 1584 c0 -49 2 -55 26 -64 34 -13 41 -13 26 2 -15 15 -16 53 -2
78 8 15 5 20 -20 29 l-30 10 0 -55z"/>
<path d="M4245 1619 c-38 -11 -131 -27 -205 -37 -124 -17 -132 -19 -102 -29
26 -10 32 -17 32 -42 0 -16 -4 -33 -10 -36 -5 -3 -10 -10 -10 -14 0 -14 226
23 333 54 l57 16 0 55 c0 62 4 60 -95 33z"/>
<path d="M3314 1558 c18 -25 21 -64 6 -73 -19 -12 1 -25 36 -25 31 0 34 2 24
19 -16 31 -12 71 8 79 13 5 11 8 -13 13 -16 4 -40 7 -53 8 -22 1 -22 0 -8 -21z"/>
<path d="M5456 1684 c-5 -12 16 -40 73 -99 44 -46 100 -111 125 -145 25 -34
46 -58 46 -53 0 24 -164 248 -218 296 -18 17 -20 17 -26 1z"/>
<path d="M5265 1511 c-3 -6 -47 -41 -97 -78 l-90 -68 66 -62 c82 -75 190 -149
271 -182 79 -33 179 -40 229 -16 40 19 47 35 16 35 -28 0 -116 45 -165 84 -22
18 -55 41 -72 51 -18 11 -33 23 -33 27 0 4 -28 38 -62 75 -57 62 -58 64 -14
24 l50 -45 9 28 c8 24 4 32 -39 79 -55 59 -60 62 -69 48z m-49 -167 c22 -15
54 -61 54 -79 0 -3 -8 -5 -19 -5 -19 0 -91 71 -91 90 0 15 28 12 56 -6z m114
-124 c0 -5 -7 -10 -15 -10 -8 0 -15 5 -15 10 0 6 7 10 15 10 8 0 15 -4 15 -10z"/>
<path d="M5413 1415 c-29 -20 -37 -59 -18 -95 27 -53 103 -53 130 1 38 73 -43
142 -112 94z m94 -34 c26 -54 -40 -107 -81 -65 -19 19 -21 65 -4 82 21 21 71
10 85 -17z"/>
<path d="M5450 1394 c0 -4 8 -13 18 -20 14 -11 15 -16 4 -33 -10 -18 -10 -21
3 -21 24 0 31 51 10 67 -20 14 -35 17 -35 7z"/>
<path d="M5495 1271 c-6 -11 68 -57 123 -77 64 -23 79 -15 22 12 -30 14 -69
36 -87 50 -34 26 -48 30 -58 15z"/>
<path d="M2822 1319 c2 -25 13 -41 46 -66 24 -18 48 -33 53 -33 5 0 9 20 9 44
0 42 -1 44 -47 62 -27 11 -52 21 -56 23 -5 2 -7 -12 -5 -30z"/>
<path d="M4498 1334 c-23 -12 -28 -21 -28 -55 0 -43 5 -44 48 -6 13 12 22 32
22 49 0 32 -4 33 -42 12z"/>
<path d="M2970 1246 c0 -40 3 -45 31 -55 41 -14 41 -14 27 8 -9 15 -9 26 0 45
12 28 10 30 -30 40 -27 6 -28 5 -28 -38z"/>
<path d="M4296 1269 c-77 -21 -254 -49 -309 -49 -20 0 -39 -4 -42 -10 -3 -5 1
-10 9 -10 18 0 30 -33 21 -60 -4 -14 -2 -20 9 -20 35 0 306 51 361 67 60 19
60 19 63 61 3 38 1 42 -20 41 -13 -1 -54 -9 -92 -20z"/>
<path d="M3273 1213 c20 -23 22 -58 5 -70 -8 -5 4 -10 32 -14 50 -7 59 -4 42
13 -17 17 -15 38 5 60 15 17 15 18 -9 18 -14 0 -41 3 -59 7 -33 6 -34 6 -16
-14z"/>
<path d="M2910 948 c0 -191 11 -242 66 -306 33 -39 113 -102 129 -102 4 0 -9
17 -29 37 -66 68 -70 86 -74 305 l-4 197 -26 9 c-15 6 -35 13 -44 17 -17 7
-18 -5 -18 -157z"/>
<path d="M4393 1092 c-9 -6 -14 -58 -16 -182 -4 -193 -13 -232 -79 -314 -27
-33 -28 -37 -8 -26 45 24 107 97 124 146 14 37 19 91 22 217 4 155 4 167 -13
167 -10 0 -24 -4 -30 -8z"/>
<path d="M3040 895 c0 -206 11 -255 73 -322 22 -24 55 -51 71 -60 28 -14 27
-12 -11 24 -24 22 -53 62 -65 89 -21 44 -23 64 -23 209 0 88 3 174 7 191 7 30
5 32 -22 36 l-30 5 0 -172z"/>
<path d="M4215 1049 c-49 -10 -147 -24 -216 -31 l-126 -12 34 -33 35 -32 -3
-153 c-4 -144 -6 -156 -31 -198 -31 -53 -72 -85 -142 -112 l-51 -19 125 5
c221 10 368 54 420 125 44 63 53 107 58 299 2 100 0 181 -4 181 -5 -1 -49 -10
-99 -20z"/>
<path d="M3311 1003 c11 -12 13 -51 12 -165 -3 -166 6 -225 42 -280 25 -37
116 -98 145 -98 8 1 2 8 -15 17 -44 23 -74 53 -98 98 -20 37 -22 55 -22 218 0
176 0 178 24 196 l23 18 -47 6 c-75 11 -80 10 -64 -10z"/>
</g>
</svg>
